<?xml version="1.0" encoding="UTF-8" standalone="no"?>
<!-- Created with Inkscape (http://www.inkscape.org/) -->

<svg
   xmlns:dc="http://purl.org/dc/elements/1.1/"
   xmlns:cc="http://creativecommons.org/ns#"
   xmlns:rdf="http://www.w3.org/1999/02/22-rdf-syntax-ns#"
   xmlns:svg="http://www.w3.org/2000/svg"
   xmlns="http://www.w3.org/2000/svg"
   xmlns:sodipodi="http://sodipodi.sourceforge.net/DTD/sodipodi-0.dtd"
   xmlns:inkscape="http://www.inkscape.org/namespaces/inkscape"
   width="210mm"
   height="297mm"
   viewBox="0 0 744.09448819 1052.3622047"
   id="svg3361"
   version="1.1"
   inkscape:version="0.91 r13725"
   sodipodi:docname="header-nav__h1.svg">
  <defs
     id="defs3363" />
  <sodipodi:namedview
     id="base"
     pagecolor="#ffffff"
     bordercolor="#666666"
     borderopacity="1.0"
     inkscape:pageopacity="0.0"
     inkscape:pageshadow="2"
     inkscape:zoom="0.98994949"
     inkscape:cx="375"
     inkscape:cy="520"
     inkscape:document-units="px"
     inkscape:current-layer="layer1"
     showgrid="false"
     inkscape:window-width="1366"
     inkscape:window-height="705"
     inkscape:window-x="-8"
     inkscape:window-y="-8"
     inkscape:window-maximized="1" />
  <metadata
     id="metadata3366">
    <rdf:RDF>
      <cc:Work
         rdf:about="">
        <dc:format>image/svg+xml</dc:format>
        <dc:type
           rdf:resource="http://purl.org/dc/dcmitype/StillImage" />
        <dc:title></dc:title>
      </cc:Work>
    </rdf:RDF>
  </metadata>
  <g
     inkscape:label="Layer 1"
     inkscape:groupmode="layer"
     id="layer1">
    <g
       id="g3380"
       transform="translate(5.0507627,-78.791899)">
      <path
         style="fill:#d1effe"
         d="m 637.09821,564.77713 c -4.65072,-2.4552 -6.18338,-4.91489 -3.0625,-4.91489 0.89375,0 2.23513,0.61012 2.98082,1.35583 0.74572,0.74571 2.68634,1.16758 4.3125,0.9375 2.49116,-0.35247 3.01624,-1.23532 3.33502,-5.6073 l 0.37833,-5.18898 -5.25278,1.80973 c -11.92209,4.1075 -18.64279,-2.19422 -20.1905,-18.93178 -0.27345,-2.95718 -1.22391,-1.17335 -4.49565,8.4375 -3.57628,10.50539 -4.53148,12.1875 -6.92082,12.1875 -1.52456,0 -3.38653,-0.61461 -4.13772,-1.3658 -0.98774,-0.98774 -2.07223,-0.98774 -3.91782,0 -4.03373,2.15879 -12.95494,1.60728 -16.36148,-1.01147 -2.70897,-2.08249 -3.44531,-2.14402 -7.14736,-0.5972 -8.21121,3.43086 -17.51594,1.5959 -20.53763,-4.05018 l -1.60475,-2.9985 -2.20727,3.36479 c -1.214,1.85064 -3.50679,4.08592 -5.09509,4.96728 -3.38656,1.87926 -10.54857,2.20349 -11.58624,0.52452 -0.42448,-0.68684 -3.04181,-0.37577 -6.36467,0.75644 -6.62436,2.25715 -12.98973,1.44294 -16.16704,-2.06795 -1.96895,-2.17566 -2.54579,-2.24952 -5.5273,-0.70771 -12.53047,6.47975 -22.07749,0.90046 -23.74844,-13.87864 l -0.82655,-7.31058 -4.12436,12.1875 c -3.55761,10.51277 -4.50526,12.1875 -6.89628,12.1875 -1.52456,0 -3.45339,-0.68147 -4.28631,-1.51439 -0.83658,-0.83659 -3.79739,-1.34955 -6.61526,-1.14609 -8.0815,0.5835 -12.25675,-1.85075 -15.64125,-9.11916 -1.73743,-3.73123 -2.97174,-5.31542 -2.99609,-3.84536 -0.0227,1.375 -1.57515,5.3125 -3.44971,8.75 -7.27004,13.33149 -15.19951,6.37912 -15.25585,-13.37597 -0.0285,-10.00638 1.97417,-22.24903 3.6396,-22.24903 0.52794,0 2.78295,0.63552 5.01112,1.41227 3.53218,1.23132 3.9512,1.83189 3.27054,4.6875 -0.42937,1.80137 -1.11605,8.40031 -1.52595,14.6643 -1.28835,19.68846 2.7979,15.48226 8.332,-8.57657 1.54189,-6.70313 3.21264,-12.1875 3.7128,-12.1875 0.50016,0 2.74203,0.63886 4.98193,1.4197 3.8184,1.3311 4.0251,1.70163 3.3124,5.9375 -1.79835,10.68814 -2.27565,17.71987 -1.48787,21.91915 1.02587,5.46832 5.29927,8.69211 9.96862,7.52018 3.13292,-0.78632 3.25736,-1.16175 3.25736,-9.82747 0,-9.4936 2.02282,-23.13794 3.68665,-24.86706 0.5414,-0.56266 2.95951,-0.19774 5.37357,0.81092 l 4.38923,1.83394 -1.54964,6.06407 c -0.85231,3.33524 -1.92237,8.31407 -2.37793,11.06407 -0.67774,4.0912 -0.0205,3.1824 3.61619,-5 5.66898,-12.75507 8.08543,-15.32773 12.77244,-13.5981 1.95173,0.72024 3.28725,2.04374 3.05858,3.03104 -0.22326,0.96391 -1.00194,6.26707 -1.73041,11.78481 -1.1149,8.44481 -1.01132,10.77397 0.65463,14.71975 1.79615,4.25415 2.41837,4.68573 6.7304,4.66836 2.61322,-0.0105 5.32425,-0.4324 6.02455,-0.9375 0.71357,-0.51467 1.26303,-6.13829 1.25,-12.79336 -0.0127,-6.53125 0.38455,-13.70313 0.88299,-15.9375 0.7042,-3.15678 0.49519,-4.0625 -0.9375,-4.0625 -1.01406,0 -1.84375,-0.90935 -1.84375,-2.02079 0,-1.34891 0.76691,-1.82024 2.30664,-1.41759 1.87555,0.49047 2.59785,-0.53304 3.86478,-5.47638 0.85699,-3.34377 2.05248,-6.3851 2.65665,-6.7585 0.60418,-0.3734 2.86679,0.23551 5.02804,1.35313 3.65518,1.89017 3.87489,2.37372 3.14694,6.92608 l -0.7826,4.89405 4.48144,0 c 3.59276,0 4.39914,0.43378 4.06648,2.1875 -0.3008,1.58576 -1.84119,2.29166 -5.59986,2.56616 l -5.18492,0.37867 -1.36679,7.84873 c -2.28059,13.09606 -1.82502,19.17435 1.70139,22.70076 3.20592,3.20592 4.67702,3.52938 8.77252,1.92887 2.20978,-0.86357 2.42928,-1.98977 2.11463,-10.84964 -0.3111,-8.76001 0.0488,-10.66913 3.15928,-16.76105 4.40708,-8.63117 10.70464,-12.62123 16.47975,-10.44137 2.03517,0.76819 4.16837,0.9411 4.74047,0.38424 0.57208,-0.55685 2.94131,-0.20576 5.26494,0.78022 4.00015,1.69737 4.18042,2.04148 3.39067,6.4723 -1.90958,10.71345 -2.12174,22.18981 -0.4678,25.30461 1.88472,3.54941 7.20492,4.64715 12.59343,2.59844 2.97798,-1.13222 3.21332,-1.63439 2.11717,-4.51751 -1.629,-4.28457 -1.56896,-16.39251 0.12037,-24.2694 0.74443,-3.47134 1.60624,-6.31153 1.9151,-6.31153 0.30887,0 2.57807,0.84254 5.04267,1.87232 3.97028,1.65889 4.39475,2.26446 3.72367,5.3125 -0.41657,1.8921 -1.07735,7.94018 -1.4684,13.44018 -1.01908,14.33309 2.03193,18.68992 11.43548,16.32978 2.84316,-0.71358 2.99786,-1.25535 2.99786,-10.49902 0,-10.11404 1.97407,-23.82396 3.68665,-25.60376 0.5414,-0.56266 2.95951,-0.19774 5.37358,0.81092 l 4.38922,1.83394 -1.54964,6.06407 c -0.85231,3.33524 -1.92237,8.31407 -2.37793,11.06407 -0.67774,4.0912 -0.0205,3.1824 3.61619,-5 5.66898,-12.75507 8.08543,-15.32773 12.77244,-13.5981 1.95173,0.72024 3.28725,2.04374 3.05858,3.03104 -0.22327,0.96391 -1.00194,6.26707 -1.73041,11.78481 -1.12053,8.48743 -1.015,10.76537 0.68535,14.79324 1.93062,4.5734 2.22043,4.74578 7.3554,4.375 6.07246,-0.43848 5.92108,0.16656 4.16221,-16.63599 -1.63835,-15.65106 3.46337,-23.34938 12.88698,-19.44598 5.52445,2.2883 6.94508,7.53512 4.54016,16.76824 -1.03966,3.9915 -2.44794,8.29927 -3.12953,9.57283 -0.68159,1.27356 -1.24135,6.14941 -1.24393,10.83523 -0.006,11.15522 -3.01164,16.67104 -9.03945,16.58944 -2.24448,-0.0304 -6.19025,-1.16883 -8.76837,-2.52987 z m -87.94694,-22.81967 c 3.0258,-4.05273 4.47429,-18.89534 2.07435,-21.25585 -4.18224,-4.11354 -11.69496,14.71052 -8.85361,22.18383 1.5196,3.99685 3.28251,3.75553 6.77926,-0.92798 z m 108.16338,-18.13689 c 0.1712,-5.19811 -2.99004,-2.16119 -3.79257,3.64341 -1.07776,7.79545 0.29684,10.48884 2.1809,4.27326 0.83358,-2.75 1.55883,-6.3125 1.61167,-7.91667 z m -532.28344,30.71074 c -6.37429,-3.27587 -8.2455,-7.68869 -8.2455,-19.44513 0,-5.96691 0.40781,-12.67707 0.90625,-14.91144 0.7042,-3.15678 0.49519,-4.0625 -0.9375,-4.0625 -1.01406,0 -1.84375,-0.88499 -1.84375,-1.96666 0,-1.20321 0.84917,-1.8 2.1875,-1.53736 1.66671,0.32709 2.65278,-1.06467 4.14183,-5.84584 1.68328,-5.40483 2.36279,-6.22864 4.8994,-5.93983 5.01463,0.57093 6.59271,2.77767 5.75093,8.04187 l -0.7592,4.74782 4.48142,0 c 3.59277,0 4.39915,0.43378 4.06649,2.1875 -0.3008,1.58576 -1.8412,2.29166 -5.59986,2.56616 l -5.18492,0.37867 -1.36679,7.84873 c -3.40616,19.55959 0.13619,27.94201 10.37948,24.56142 l 4.12386,-1.36099 -0.59051,-9.20138 c -0.51162,-7.97214 -0.16352,-10.13405 2.60575,-16.18292 5.75172,-12.5634 19.56912,-16.4748 24.6515,-6.97828 1.21926,2.27821 1.04542,2.43663 -1.87062,1.70475 -8.19326,-2.05638 -15.66626,6.86526 -15.66626,18.70317 0,10.33135 4.25873,13.85334 9.6259,7.96067 6.08887,-6.68502 7.29948,-14.49777 2.5689,-16.57859 -3.52105,-1.54879 -4.1826,-4.69254 -1.54295,-7.33219 2.6628,-2.6628 3.81606,-2.55881 7.00667,0.6318 2.2668,2.2668 2.5568,3.64403 1.96819,9.34711 -0.83621,8.10214 -5.98368,18.03014 -10.83368,20.89511 -4.05628,2.39611 -11.3666,2.77569 -13.44421,0.69808 -1.0349,-1.0349 -2.95562,-0.87152 -7.34767,0.625 -7.0885,2.4153 -10.11191,2.51057 -14.13065,0.44525 z m 80,0.0674 c -6.41473,-3.44054 -8.2455,-7.77295 -8.2455,-19.51252 0,-5.96691 0.40781,-12.67707 0.90625,-14.91144 0.7042,-3.15678 0.49519,-4.0625 -0.9375,-4.0625 -1.01406,0 -1.84375,-0.88499 -1.84375,-1.96666 0,-1.20321 0.84917,-1.8 2.1875,-1.53736 1.66671,0.32709 2.65278,-1.06467 4.14183,-5.84584 1.68328,-5.40483 2.36279,-6.22864 4.8994,-5.93983 5.01463,0.57093 6.59271,2.77767 5.75093,8.04187 l -0.7592,4.74782 4.48142,0 c 3.59277,0 4.39915,0.43378 4.06649,2.1875 -0.3008,1.58576 -1.8412,2.29166 -5.59986,2.56616 l -5.18492,0.37867 -1.36679,7.84873 c -2.28059,13.09606 -1.82503,19.17435 1.70138,22.70076 3.43069,3.43068 4.15942,3.58512 8.72545,1.84912 3.0701,-1.16726 3.20637,-1.64069 3.20637,-11.14004 0,-10.10829 2.21162,-24.20927 5.65451,-36.05239 l 1.91533,-6.58851 5.59008,0 c 3.07454,0 5.58399,0.14062 5.57655,0.3125 -0.007,0.17187 -0.87915,3.125 -1.93713,6.5625 -2.25988,7.34262 -8.07069,33.52032 -7.55513,34.03587 0.19509,0.19509 1.891,-3.56102 3.76868,-8.34693 5.42079,-13.81669 9.46732,-17.48803 14.8812,-13.50144 1.7743,1.30653 1.90815,2.2792 0.81707,5.9375 -0.71765,2.40625 -1.4007,8.42023 -1.51787,13.3644 -0.29194,12.31744 2.99913,15.89518 12.32013,13.39326 2.43242,-0.6529 2.59159,-1.36287 2.03854,-9.09243 -1.09766,-15.34124 7.20985,-27.66523 18.64893,-27.66523 12.00736,0 11.1219,11.24366 -1.8403,23.36828 -4.95284,4.63281 -6.3276,6.71842 -6.0185,9.13053 0.96183,7.50594 5.84061,8.14627 15.0171,1.97095 7.02718,-4.72895 10.10006,-3.93876 3.60172,0.9262 -9.85354,7.37681 -19.39955,9.28404 -24.17945,4.83089 -2.12655,-1.98119 -2.91942,-2.0687 -6.1732,-0.68138 -4.56667,1.94712 -12.42817,2.15646 -15.6775,0.41748 -3.36517,-1.80099 -6.0199,-7.45227 -7.13252,-15.18343 l -0.94801,-6.58741 -4.18254,12.13396 -4.18253,12.13394 -5.80508,-0.15397 c -3.1928,-0.0847 -8.05508,0.2276 -10.80508,0.69396 -3.22171,0.54636 -6.06857,0.2748 -8.0045,-0.76354 z m 74.77316,-24.89975 c 2.80849,-3.52731 5.10634,-6.90231 5.10634,-7.5 0,-2.50106 -3.84245,-0.79802 -6.71406,2.97578 -2.89702,3.80719 -5.60428,10.9375 -4.15279,10.9375 0.3598,0 2.95204,-2.88597 5.76051,-6.41328 z m 39.14254,24.35634 c -2.35944,-0.99337 -5.2862,-7.31236 -5.2862,-11.41308 0,-4.37785 4.25997,-8.69447 9.64284,-9.77104 3.66225,-0.73245 3.97636,-1.24318 5.20102,-8.45673 0.71686,-4.22246 1.64175,-10.77095 2.0553,-14.5522 1.40919,-12.88465 1.15918,-12.5 8.12465,-12.5 3.4244,0 6.22619,0.29106 6.22619,0.64681 0,2.56724 5.43306,25.19987 6.2561,26.06117 1.16155,1.21556 10.70939,-11.21593 15.80539,-20.57896 3.07068,-5.64186 3.7053,-6.12902 7.98411,-6.12902 7.2719,0 7.68495,1.41861 4.90372,16.8413 -2.86991,15.91451 -3.22153,31.62481 -0.78247,34.96042 1.44423,1.9751 2.24262,2.08953 5.97795,0.85676 l 4.31111,-1.42279 -0.48859,-8.64675 c -0.41032,-7.26182 0.0202,-9.75803 2.68787,-15.58502 5.73215,-12.52067 19.55892,-16.41357 24.63169,-6.93501 1.21926,2.27821 1.04542,2.43663 -1.87062,1.70475 -8.19326,-2.05638 -15.66626,6.86526 -15.66626,18.70317 0,10.33135 4.25873,13.85334 9.6259,7.96067 6.08888,-6.68502 7.29948,-14.49777 2.5689,-16.57859 -3.52105,-1.54879 -4.1826,-4.69254 -1.54295,-7.33219 2.6628,-2.6628 3.81606,-2.55881 7.00666,0.6318 2.26681,2.2668 2.55681,3.64403 1.9682,9.34711 -0.83621,8.10214 -5.98367,18.03014 -10.83369,20.89511 -4.42041,2.61121 -11.04591,2.71036 -13.81242,0.2067 -1.86751,-1.69007 -2.57586,-1.69007 -6.62078,0 -8.91518,3.725 -15.64792,2.09541 -19.1253,-4.6291 -1.63338,-3.15861 -1.92636,-6.53312 -1.46597,-16.88491 0.31646,-7.11555 0.20911,-12.49436 -0.23856,-11.9529 -0.44768,0.54146 -3.19693,3.90861 -6.10945,7.48256 -5.2849,6.48511 -9.4862,9.07198 -11.47183,7.06358 -0.5773,-0.58392 -2.40869,-5.77929 -4.06975,-11.54527 l -3.0201,-10.48361 -1.58825,10.20969 c -1.41587,9.10168 -1.36752,10.45359 0.44558,12.45703 2.99361,3.30791 2.57426,5.35877 -0.9166,4.48261 -2.4844,-0.62354 -3.06242,-0.18307 -3.65948,2.78869 -0.38997,1.94105 -2.03351,5.49794 -3.6523,7.90419 -2.32531,3.45649 -3.8533,4.42612 -7.27802,4.61849 -2.38414,0.13392 -5.04975,-0.0575 -5.92359,-0.42543 z m 3.89834,-8.88055 c 0.96181,-1.89063 2.16347,-4.77972 2.67036,-6.42021 0.85854,-2.77855 0.67734,-2.9214 -2.64715,-2.08701 -5.0289,1.26218 -6.70775,2.98649 -6.70775,6.88944 0,6.08168 3.9298,7.03276 6.68454,1.61778 z M 586.40116,511.9932 c -2.68356,-2.85653 -3.56979,-8.51526 -1.98171,-12.65372 0.93265,-2.43046 5.45173,-2.57076 8.60225,-0.26705 2.18481,1.59758 2.22112,2.14654 0.55141,8.33766 -0.98308,3.64511 -2.38233,6.82383 -3.10945,7.06383 -0.72713,0.24 -2.55525,-0.87633 -4.0625,-2.48072 z"
         id="path3392"
         inkscape:connector-curvature="0" />
      <path
         style="fill:#aee3fe"
         d="m 637.053,564.48438 c -5.28588,-3.19992 -5.13485,-5.06272 0.2458,-3.03176 5.38596,2.03298 7.61191,0.5228 7.61191,-5.16426 l 0,-4.90233 -6.21657,1.82233 c -5.20369,1.52542 -6.7821,1.55403 -9.6875,0.17561 -4.40042,-2.08771 -9.08026,-11.22079 -9.14598,-17.84909 -0.0491,-4.94834 -0.083,-4.98616 -1.72496,-1.92264 -0.92122,1.71875 -2.97816,7.20312 -4.571,12.1875 -2.38375,7.45935 -3.36114,9.0625 -5.52503,9.0625 -1.44592,0 -3.21236,-0.5834 -3.92541,-1.29645 -0.89526,-0.89527 -2.35164,-0.89527 -4.70638,0 -5.44487,2.07014 -11.36707,1.52689 -15.06503,-1.38193 -3.26315,-2.5668 -3.58439,-2.59283 -7.71098,-0.625 -2.36828,1.12936 -6.59315,2.05338 -9.38857,2.05338 -4.08498,0 -5.89354,-0.81095 -9.21419,-4.13161 l -4.13161,-4.1316 -3.28627,4.11855 c -3.81157,4.77689 -8.44267,6.32317 -13.36885,4.46375 -2.61935,-0.98869 -4.80122,-0.85617 -8.84206,0.53705 -5.77831,1.99228 -13.0313,0.83341 -15.82087,-2.52783 -1.13598,-1.36875 -2.67482,-1.23495 -8.76625,0.76224 -6.45124,2.11516 -7.84119,2.20756 -10.95795,0.72844 -4.50118,-2.13612 -9.17809,-11.19003 -9.24459,-17.89635 -0.0491,-4.94834 -0.083,-4.98616 -1.72496,-1.92264 -0.92122,1.71875 -2.97817,7.20312 -4.571,12.1875 -2.50382,7.83505 -3.29133,9.0625 -5.81427,9.0625 -1.605,0 -3.22467,-0.79868 -3.59926,-1.77485 -0.51619,-1.34517 -2.2569,-1.61221 -7.19021,-1.10304 -5.7432,0.59275 -6.97128,0.28295 -10.4364,-2.63277 -2.15999,-1.81751 -4.76859,-5.68052 -5.79688,-8.58445 -1.12202,-3.16868 -1.90906,-4.25342 -1.96828,-2.71282 -0.164,4.26591 -6.34292,15.38763 -9.02123,16.23769 -7.97409,2.53088 -12.29607,-15.4707 -8.38727,-34.93406 1.37678,-6.85552 1.58317,-7.13625 4.6875,-6.37622 5.348,1.30934 6.40728,3.1291 5.09666,8.75552 -1.53986,6.61051 -1.54816,22.77733 -0.0125,23.72662 1.74376,1.07771 4.4757,-6.20838 7.7172,-20.58186 1.55322,-6.88587 3.30108,-12.51976 3.88444,-12.51976 0.58336,0 2.77468,0.88636 4.86961,1.96969 3.00705,1.555 3.64864,2.54187 3.04749,4.6875 -1.84905,6.59952 -2.29989,22.0542 -0.75235,25.79028 1.66555,4.02099 5.58662,5.83519 9.75345,4.51269 2.10782,-0.669 2.50446,-2.37837 3.14422,-13.55037 0.40266,-7.03163 1.36049,-14.9213 2.1285,-17.53259 1.19839,-4.07455 1.78453,-4.6316 4.13349,-3.92835 5.76579,1.72621 6.31422,3.33034 4.12421,12.06277 -3.25049,12.96102 -2.35354,15.18119 1.87511,4.64135 2.09014,-5.20962 5.09577,-11.09677 6.67918,-13.08256 2.64735,-3.32008 3.15373,-3.48531 6.29503,-2.05404 2.85303,1.29994 3.29413,2.11705 2.6762,4.95755 -1.86097,8.55428 -2.14064,22.22353 -0.51715,25.27608 1.87886,3.53275 9.01161,4.89116 13.387,2.54952 2.08271,-1.11463 2.30593,-1.89054 1.30292,-4.52868 -1.56186,-4.10802 -1.4997,-14.62546 0.1282,-21.68867 1.06263,-4.61052 0.95236,-5.72478 -0.65555,-6.62461 -2.69085,-1.50587 -2.4281,-3.78315 0.3353,-2.90608 1.85777,0.58963 2.66121,-0.52638 4.43887,-6.16577 1.19379,-3.78714 2.62843,-6.88571 3.18808,-6.88571 0.55965,0 2.5152,1.17805 4.34565,2.61788 2.83326,2.22865 3.20936,3.25085 2.52946,6.875 -0.78874,4.20437 -0.7427,4.25712 3.71548,4.25712 3.02512,0 4.51411,0.57436 4.51411,1.74126 0,2.09046 -2.68832,3.25874 -7.49865,3.25874 -3.24559,0 -3.65824,0.53176 -4.89778,6.31153 -1.76612,8.23516 -1.72576,19.00396 0.0861,22.98063 1.68002,3.68725 4.75252,4.94368 9.52589,3.89538 l 3.40941,-0.74875 0,-11.5319 c 0,-10.42292 0.34204,-12.1138 3.55677,-17.58301 4.03835,-6.87041 10.24843,-10.36927 15.68327,-8.83621 1.79297,0.50577 4.03077,0.78774 4.97288,0.62661 0.94212,-0.16113 3.38142,0.39815 5.42068,1.24283 3.13221,1.29741 3.59016,2.03888 2.95029,4.77684 -0.4166,1.78258 -1.1058,7.86134 -1.53155,13.50835 -0.96324,12.77603 0.83835,16.6077 7.80865,16.6077 7.20066,0 9.30717,-1.741 7.92744,-6.55189 -2.48022,-8.64799 -0.21378,-28.44811 3.25633,-28.44811 0.94194,0 3.18285,0.66989 4.9798,1.48864 2.47193,1.12628 3.08621,2.11515 2.52365,4.0625 -0.40896,1.41562 -1.09057,7.46995 -1.5147,13.45405 -0.93546,13.19864 0.81574,17.25707 7.4328,17.22567 2.21853,-0.0105 4.65629,-0.4324 5.41724,-0.9375 0.7792,-0.51722 1.7037,-6.65141 2.11651,-14.04336 0.40313,-7.21875 1.36134,-15.26151 2.12935,-17.8728 1.19839,-4.07455 1.78453,-4.6316 4.13349,-3.92835 5.76579,1.72621 6.31422,3.33034 4.12421,12.06277 -3.25049,12.96102 -2.35353,15.18119 1.87512,4.64135 2.09013,-5.20962 5.09576,-11.09677 6.67917,-13.08256 2.64735,-3.32008 3.15373,-3.48531 6.29503,-2.05404 2.85303,1.29994 3.29413,2.11705 2.6762,4.95755 -0.40696,1.8706 -1.06374,7.61983 -1.45954,12.77608 -0.94859,12.35775 0.59139,15.47858 7.90008,16.00993 6.66669,0.48468 7.15719,-0.6559 5.33437,-12.40428 -2.52854,-16.29688 1.07019,-25.94161 9.08168,-24.3393 2.0992,0.41984 4.83802,1.68759 6.08626,2.81723 3.13034,2.83293 2.97023,12.30575 -0.34958,20.68264 -1.6521,4.16874 -2.70129,9.87613 -2.84169,15.4583 -0.37845,15.04626 -6.31061,19.35896 -17.39692,12.64762 z m -87.17751,-22.76243 c 1.10005,-2.21021 1.86929,-7.2951 1.88451,-12.45692 0.0213,-7.19722 -0.34295,-8.79507 -2.08288,-9.13896 -4.76221,-0.94122 -10.44197,16.39075 -7.4926,22.86391 1.92488,4.22464 5.22828,3.68001 7.69097,-1.26803 z m 106.37048,-11.12743 c 0.833,-3.72224 1.11676,-7.80037 0.63058,-9.0625 -0.84812,-2.20171 -0.93518,-2.20356 -2.14659,-0.0455 -0.69445,1.23712 -1.57908,5.31524 -1.96583,9.0625 -0.93066,9.01734 1.46702,9.04867 3.48184,0.0455 z M 125.1812,554.2729 c -7.71616,-3.43142 -11.04649,-17.23002 -7.68188,-31.82849 1.06261,-4.61052 0.95235,-5.72478 -0.65556,-6.62461 -2.69085,-1.50587 -2.4281,-3.78315 0.3353,-2.90608 1.85777,0.58963 2.66121,-0.52638 4.43887,-6.16577 1.19379,-3.78714 2.62843,-6.88571 3.18808,-6.88571 0.55965,0 2.5152,1.17805 4.34565,2.61788 2.83327,2.22865 3.20936,3.25085 2.52946,6.875 -0.78874,4.20437 -0.7427,4.25712 3.71548,4.25712 3.02512,0 4.51411,0.57436 4.51411,1.74126 0,2.09046 -2.68832,3.25874 -7.49865,3.25874 -3.24558,0 -3.65823,0.53176 -4.89777,6.31153 -1.77476,8.27544 -1.72317,19.00968 0.11071,23.03462 1.81063,3.97389 5.80475,5.08649 11.5057,3.20501 4.17801,-1.37887 4.29959,-1.58906 3.02837,-5.2357 -1.94405,-5.57673 -0.47278,-17.56115 2.89058,-23.54543 5.30646,-9.44158 15.69462,-12.93647 21.42356,-7.20753 l 2.8125,2.8125 -5,0.66882 c -6.52939,0.8734 -7.67982,1.68315 -10.64286,7.49119 -2.94331,5.76936 -3.34206,17.06115 -0.72871,20.63513 3.78108,5.17093 11.32401,-1.54281 13.7659,-12.25262 0.66329,-2.90907 0.28301,-3.6496 -2.39753,-4.66874 -3.87468,-1.47315 -5.18807,-4.38408 -3.10859,-6.8897 2.23276,-2.6903 5.79826,-2.28278 8.04091,0.91905 2.45804,3.50935 2.44655,6.33216 -0.0601,14.77305 -2.81622,9.48326 -9.63337,16.19882 -16.44388,16.19882 -2.8745,0 -5.64283,-0.78179 -6.52279,-1.84208 -1.3185,-1.58869 -1.99028,-1.60343 -4.88375,-0.10716 -5.47928,2.83344 -11.6409,3.35315 -16.12308,1.3599 z m 80,-0.0419 c -7.71008,-3.35 -11.05032,-17.17146 -7.68189,-31.78658 1.06262,-4.61052 0.95236,-5.72478 -0.65555,-6.62461 -2.69085,-1.50587 -2.4281,-3.78315 0.3353,-2.90608 1.85777,0.58963 2.66121,-0.52638 4.43887,-6.16577 1.19379,-3.78714 2.62843,-6.88571 3.18808,-6.88571 0.55965,0 2.5152,1.17805 4.34565,2.61788 2.83327,2.22865 3.20936,3.25085 2.52946,6.875 -0.78874,4.20437 -0.7427,4.25712 3.71548,4.25712 3.02512,0 4.51411,0.57436 4.51411,1.74126 0,2.09046 -2.68832,3.25874 -7.49865,3.25874 -3.24558,0 -3.65823,0.53176 -4.89777,6.31153 -1.76613,8.23516 -1.72577,19.00396 0.0861,22.98063 1.7113,3.75589 4.76063,4.94193 9.83839,3.82667 l 3.72192,-0.81747 0,-9.67111 c 0,-10.71128 1.3635,-19.66002 5.20988,-34.19275 l 2.56399,-9.6875 5.36573,0 5.36573,0 -1.81495,5.9375 c -2.05826,6.73345 -7.94833,33.19476 -7.92512,35.60377 0.008,0.87105 1.93049,-2.80318 4.27133,-8.16496 5.26581,-12.06153 7.71653,-15.87631 10.1994,-15.87631 2.72986,0 6.95019,2.43749 6.23208,3.5994 -1.47141,2.3808 -3.27347,18.62337 -2.54475,22.93666 0.99663,5.89896 3.44033,8.46394 8.06373,8.46394 6.71785,0 7.31856,-0.77305 6.62268,-8.52278 -0.86251,-9.60542 1.36444,-16.9923 6.91743,-22.94539 5.61933,-6.02422 13.6055,-7.88297 17.75089,-4.13144 4.919,4.45162 1.72754,12.25417 -8.99256,21.98523 -6.32639,5.7427 -6.34145,5.77477 -4.84386,10.3125 1.18916,3.60319 2.14628,4.55188 4.59238,4.55188 3.31083,0 9.75406,-2.88055 13.20617,-5.90401 1.16333,-1.0189 2.84546,-1.60911 3.73803,-1.31158 2.77655,0.92551 -12.13703,9.87419 -17.69939,10.62026 -3.97273,0.53285 -5.97763,0.11752 -8.54702,-1.7706 -2.95561,-2.17194 -3.80499,-2.27434 -7.1068,-0.85679 -2.0625,0.88548 -6.06393,1.63533 -8.89205,1.66634 -7.06748,0.0775 -11.13188,-4.1209 -13.05482,-13.48523 -0.80001,-3.89586 -1.58013,-7.64589 -1.73359,-8.33339 -0.15346,-0.6875 -2.1064,4.23437 -4.33986,10.9375 -4.09127,12.27882 -5.51122,13.8727 -9.88724,11.09834 -0.95794,-0.60733 -3.59593,-0.35861 -6.25,0.58927 -5.82141,2.07907 -7.3979,2.06244 -12.44695,-0.13136 z m 77.4501,-27.85068 c 4.76662,-7.71255 -0.84754,-6.8268 -6.15809,0.97157 -1.54688,2.27154 -2.8125,5.26993 -2.8125,6.66311 0,2.4202 0.14269,2.39899 3.20301,-0.47604 1.76165,-1.65498 4.35706,-4.87637 5.76758,-7.15864 z m 34.26552,24.63602 c -1.89112,-2.24748 -3.23611,-5.38822 -3.23611,-7.55682 0,-4.54094 4.71319,-9.60241 9.90942,-10.64165 3.31902,-0.66381 3.86242,-1.44162 5.00408,-7.16265 0.97456,-4.88366 3.8365,-25.73198 3.8365,-27.94768 0,-0.18991 2.72151,-0.34529 6.04781,-0.34529 l 6.04781,0 2.84849,13.75 c 1.56668,7.5625 3.33208,13.75 3.92313,13.75 1.67631,0 10.7919,-12.05487 15.23931,-20.15314 3.58927,-6.5357 4.4428,-7.31878 7.99166,-7.33203 6.68373,-0.0249 7.89485,2.30261 5.98146,11.4953 -2.67642,12.85863 -4.49153,32.55733 -3.36502,36.51923 1.43449,5.04506 4.12185,6.50588 8.57505,4.6613 3.53645,-1.46485 3.5853,-1.62527 3.5853,-11.77537 0,-8.64521 0.49197,-11.14946 3.07739,-15.66455 5.54426,-9.68235 15.82675,-13.2216 21.61011,-7.43824 l 2.8125,2.8125 -5,0.66882 c -6.52939,0.8734 -7.67983,1.68315 -10.64286,7.49119 -2.9433,5.76936 -3.34206,17.06115 -0.7287,20.63513 3.78107,5.17093 11.324,-1.54281 13.7659,-12.25262 0.66329,-2.90907 0.283,-3.6496 -2.39754,-4.66874 -3.87467,-1.47315 -5.18808,-4.38408 -3.10859,-6.8897 2.23275,-2.6903 5.79826,-2.28278 8.04091,0.91905 2.45804,3.50935 2.44655,6.33216 -0.0601,14.77305 -2.80815,9.45607 -9.63598,16.19882 -16.40321,16.19882 -3.3057,0 -5.67944,-0.80235 -7.13629,-2.41216 -2.15538,-2.38166 -2.23289,-2.38172 -6.13124,-0.005 -5.73219,3.49524 -12.24391,3.15527 -16.24745,-0.84827 -4.14504,-4.14503 -5.10602,-9.38689 -4.18961,-22.85272 l 0.73209,-10.75723 -2.51421,3.125 c -4.28933,5.33134 -12.62124,13.75 -13.60832,13.75 -1.9825,0 -3.71737,-3.58727 -6.67236,-13.79663 l -3.06178,-10.57837 -0.88301,6.25 c -0.48565,3.4375 -1.34727,8.44303 -1.91471,11.1234 -0.88119,4.16246 -0.65126,5.18146 1.57609,6.98506 2.95922,2.39624 2.1136,5.08416 -1.31724,4.18697 -1.78096,-0.46572 -2.61557,0.54265 -3.84471,4.64512 -3.32574,11.10033 -12.018,14.61641 -18.14193,7.33854 z m 7.01233,-7.42043 c 2.69252,-5.50594 2.77032,-7.48366 0.29438,-7.48366 -5.53498,0 -10.0849,6.05114 -7.81077,10.38791 1.75192,3.34094 5.0938,2.04967 7.51639,-2.90425 z M 586.7289,511.79406 c -3.06439,-3.06438 -3.70211,-6.31394 -2.28033,-11.61932 0.93353,-3.48347 5.45889,-3.76918 8.39054,-0.52974 1.89149,2.09007 1.90375,2.82868 0.14531,8.75 -1.05631,3.55698 -2.20558,6.46724 -2.55396,6.46724 -0.34836,0 -2.01406,-1.38068 -3.70156,-3.06818 z"
         id="path3390"
         inkscape:connector-curvature="0" />
      <path
         style="fill:#99dcfe"
         d="m 638.34821,564.77713 c -2.57813,-1.36104 -4.6875,-3.03812 -4.6875,-3.72685 0,-0.68966 1.64914,-0.39944 3.67081,0.64601 5.50052,2.84443 7.57919,1.41099 7.57919,-5.22652 0,-4.85337 -0.30008,-5.50633 -2.1875,-4.75992 -3.97004,1.57001 -10.12649,2.2201 -13.35383,1.41008 -4.48093,-1.12464 -7.31715,-6.12823 -8.87883,-15.66391 l -1.34603,-8.21878 -3.58281,10 c -1.97056,5.5 -4.05819,11.32861 -4.63919,12.95246 -0.84483,2.36127 -1.61507,2.77039 -3.84658,2.04316 -1.53463,-0.50013 -4.05586,-0.83895 -5.60273,-0.75295 -14.04255,0.78073 -15.12807,0.6867 -17.56833,-1.52169 -2.4094,-2.18048 -2.78111,-2.18567 -8.59697,-0.12006 -8.0018,2.84199 -14.45136,1.70215 -18.07104,-3.19371 l -2.66349,-3.60256 -3.96086,4.19975 c -4.62502,4.90395 -9.72072,6.56811 -13.65857,4.46063 -2.00829,-1.0748 -3.71327,-1.11846 -6.23507,-0.15968 -5.86952,2.23159 -13.75436,1.62933 -16.88782,-1.28993 -2.67678,-2.49379 -3.02111,-2.52153 -7.761,-0.625 -8.7682,3.50834 -15.78333,2.26199 -18.89264,-3.35657 -0.84732,-1.53112 -2.15761,-6.4401 -2.91175,-10.90885 l -1.37115,-8.125 -3.58281,10 c -1.97056,5.5 -4.03425,11.26562 -4.58598,12.8125 -1.12256,3.1473 -3.79722,3.64589 -6.28823,1.1722 -1.00624,-0.99924 -4.50224,-1.6099 -8.94533,-1.5625 -6.4648,0.069 -7.6317,-0.31506 -10.26969,-3.37963 -1.63687,-1.90159 -3.62847,-5.83909 -4.42575,-8.75 l -1.4496,-5.29257 -1.83131,6.25 c -2.00112,6.82956 -7.04016,14.375 -9.59999,14.375 -5.95551,0 -9.51203,-14.86877 -7.25711,-30.33978 0.81249,-5.57452 1.9047,-10.55047 2.42713,-11.05765 1.20087,-1.16585 9.46372,2.25696 8.64528,3.58123 -1.35438,2.19143 -3.30053,21.02606 -2.5732,24.90309 1.6399,8.7414 4.37527,4.30502 9.28282,-15.05543 3.00031,-11.83636 3.86518,-13.84132 5.81001,-13.46888 4.53264,0.86801 6.88016,2.81525 5.9926,4.97078 -0.47369,1.1504 -1.15558,7.27787 -1.51531,13.6166 -0.53882,9.49425 -0.28074,12.09471 1.46462,14.75847 1.74924,2.66969 2.92289,3.16664 6.73085,2.85004 l 4.61219,-0.38347 0.8139,-11.56699 c 0.44765,-6.36185 1.47732,-14.33242 2.28816,-17.71239 1.46055,-6.08825 1.50821,-6.13356 5.1259,-4.87242 2.0084,0.70013 3.93335,1.72879 4.27768,2.28591 0.34431,0.55712 -0.18025,4.29861 -1.16571,8.31442 -0.98545,4.01581 -2.12598,9.83272 -2.53451,12.92647 -0.69086,5.23184 -0.44943,4.92605 3.45421,-4.375 7.29873,-17.39043 7.95278,-18.32646 12.49821,-17.88645 4.43441,0.42926 4.22529,-0.80338 2.63922,15.55615 -1.05728,10.90548 -0.18228,14.80126 3.92944,17.49537 2.70294,1.77103 3.8971,1.8514 8.22819,0.55378 4.3366,-1.29928 4.95852,-1.91051 4.31767,-4.24339 -1.9501,-7.09887 -2.16797,-12.59448 -0.80875,-20.39968 1.33719,-7.67874 1.26867,-8.64056 -0.7192,-10.09413 -2.0389,-1.49088 -2.00239,-1.60665 0.50676,-1.60665 2.19564,0 3.0726,-1.268 4.66473,-6.74469 1.62044,-5.57414 2.37174,-6.6372 4.32896,-6.12538 4.39422,1.14911 6.35273,4.50846 5.12474,8.7902 -1.32609,4.6238 -0.81424,5.32987 3.86374,5.32987 1.94791,0 3.54166,0.5625 3.54166,1.25 0,0.6875 -1.94896,1.25 -4.33102,1.25 -5.90206,0 -7.19781,2.89046 -7.90808,17.64079 -0.5315,11.0375 -0.35829,12.26182 2.07966,14.69977 2.8601,2.8601 7.62158,3.43664 11.45202,1.38666 1.94768,-1.04238 2.1591,-1.84913 1.16782,-4.45638 -5.86291,-15.42061 8.63092,-39.42 19.55865,-32.38591 1.89195,1.21784 3.02776,1.31826 3.99296,0.35306 0.9652,-0.9652 2.46263,-0.88759 5.2642,0.27287 3.14004,1.30064 3.75813,2.14079 3.12153,4.24295 -0.43659,1.44166 -1.11914,7.52435 -1.51678,13.5171 -0.58336,8.79167 -0.33428,11.48915 1.28973,13.9677 2.75175,4.1997 6.05207,4.97415 11.49891,2.69832 3.50236,-1.46339 4.40693,-2.43452 3.78275,-4.0611 -1.8773,-4.89215 -2.14864,-13.05124 -0.71644,-21.54232 1.50022,-8.89425 1.57755,-9.02586 4.82488,-8.21083 5.5447,1.39163 6.28209,2.64387 4.97709,8.45203 -2.06963,9.21124 -1.63074,21.94833 0.85077,24.69037 2.93165,3.23945 5.88798,4.04312 9.63385,2.61894 2.94029,-1.11789 3.13914,-1.823 3.7986,-13.46933 0.38274,-6.75933 1.36544,-14.91327 2.18376,-18.11986 1.463,-5.73272 1.54857,-5.80901 5.1188,-4.56442 1.99702,0.69617 3.91265,1.72158 4.25698,2.2787 0.34431,0.55712 -0.18025,4.29861 -1.16571,8.31442 -0.98545,4.01581 -2.12598,9.83272 -2.5345,12.92647 -0.69087,5.23184 -0.44944,4.92605 3.4542,-4.375 7.29873,-17.39043 7.95278,-18.32646 12.49821,-17.88645 3.41117,0.33021 3.9523,0.84124 3.71827,3.51145 -2.16765,24.73276 -2.17757,24.53717 1.42953,28.14427 2.76479,2.76479 4.10716,3.24067 7.32566,2.59697 5.44659,-1.08932 5.93742,-1.89998 4.61211,-7.61734 -0.63732,-2.74939 -1.17218,-9.38384 -1.18858,-14.74322 -0.0269,-8.7653 0.28623,-10.06038 3.11598,-12.89013 3.32882,-3.32881 5.90162,-3.26341 11.54169,0.29342 3.91859,2.4712 3.75855,10.79988 -0.4076,21.21362 -1.77105,4.42694 -3.09554,9.86662 -2.94329,12.08819 0.58832,8.58477 -0.15689,13.01824 -2.63531,15.67852 -3.12101,3.35001 -6.62504,3.39136 -12.7638,0.15059 z m -89.16058,-21.47739 c 2.65814,-4.0751 4.75324,-14.64767 3.85481,-19.45261 -0.62423,-3.33843 -1.29269,-4.06457 -3.45213,-3.75 -7.50734,1.09361 -11.99501,26.01511 -4.6846,26.01511 1.34605,0 3.27292,-1.26563 4.28192,-2.8125 z m 107.87564,-16.68227 c 0.48569,-4.70593 0.25555,-6.75523 -0.75862,-6.75523 -2.26966,0 -3.89875,5.72944 -3.84389,13.51888 l 0.05,7.10612 1.92763,-3.55727 c 1.0602,-1.9565 2.24137,-6.59713 2.62483,-10.3125 z m -535.04076,25.01566 c -4.84651,-4.8465 -6.61272,-14.44239 -4.74258,-25.76653 1.35782,-8.22191 1.29436,-9.22609 -0.67405,-10.66542 -2.00384,-1.46525 -1.96251,-1.58894 0.531,-1.58894 2.19564,0 3.07261,-1.268 4.66473,-6.74469 1.62044,-5.57414 2.37174,-6.6372 4.32896,-6.12538 4.39421,1.14911 6.35273,4.50846 5.12474,8.7902 -1.32608,4.6238 -0.81424,5.32987 3.86373,5.32987 1.94792,0 3.54167,0.5625 3.54167,1.25 0,0.6875 -1.94896,1.25 -4.33102,1.25 -5.90206,0 -7.19781,2.89046 -7.90808,17.64079 -0.5315,11.0375 -0.35829,12.26182 2.07966,14.69977 2.97381,2.97381 7.18875,3.38984 12.02392,1.18679 2.2069,-1.00553 2.97948,-2.0959 2.43565,-3.4375 -3.16164,-7.79965 -1.13051,-21.47276 4.11598,-27.70785 6.43708,-7.65004 14.25745,-9.39451 19.08389,-4.257 l 2.93578,3.125 -4.31476,0 c -8.5559,0 -13.95263,7.22015 -14.11778,18.88784 -0.10994,7.7674 1.72047,11.11216 6.08108,11.11216 3.484,0 6.65647,-3.44121 8.85466,-9.60476 2.48438,-6.96595 2.2247,-8.77039 -1.3928,-9.67833 -2.59883,-0.65226 -3.12993,-1.445 -2.8125,-4.19801 0.30866,-2.67701 1.04786,-3.3939 3.49948,-3.3939 9.87704,0 5.6034,23.99231 -5.47719,30.7491 -4.58176,2.79389 -9.36394,3.04439 -12.62311,0.66122 -1.98696,-1.4529 -2.97147,-1.4529 -6.44876,0 -6.86176,2.86703 -14.57869,2.22918 -18.3223,-1.51443 z m 80.12861,0.12861 c -4.98268,-4.98268 -6.76238,-14.44353 -4.87119,-25.89514 1.35782,-8.22191 1.29436,-9.22609 -0.67405,-10.66542 -2.00384,-1.46525 -1.96251,-1.58894 0.531,-1.58894 2.19564,0 3.07261,-1.268 4.66473,-6.74469 1.62044,-5.57414 2.37174,-6.6372 4.32896,-6.12538 4.39421,1.14911 6.35273,4.50846 5.12474,8.7902 -1.32608,4.6238 -0.81424,5.32987 3.86373,5.32987 1.94792,0 3.54167,0.5625 3.54167,1.25 0,0.6875 -1.94896,1.25 -4.33102,1.25 -5.90206,0 -7.19781,2.89046 -7.90809,17.64079 -0.53149,11.0375 -0.35828,12.26182 2.07967,14.69977 2.69939,2.69939 8.18786,3.47508 11.17687,1.57962 1.12822,-0.71544 1.76501,-4.91654 2.03394,-13.41835 0.25132,-7.94522 1.60446,-17.412 3.7791,-26.43933 l 3.38761,-14.0625 5.03668,0 c 5.7414,0 5.63783,-1.33812 1.20933,15.625 -3.28145,12.56944 -6.50744,29.966 -5.29621,28.56056 0.5027,-0.58331 2.16512,-4.43556 3.69426,-8.56056 1.52913,-4.125 4.20628,-9.9386 5.94922,-12.91911 2.80769,-4.80129 3.54744,-5.32411 6.48874,-4.58589 1.82587,0.45827 3.52464,1.03807 3.77502,1.28846 0.25039,0.25038 -0.17033,4.04761 -0.93493,8.43828 -1.87158,10.74738 -1.74965,16.58227 0.43475,20.80646 2.16751,4.1915 5.47322,5.29615 11.15456,3.72746 l 4.16899,-1.15111 -1.28688,-5.62367 c -2.46251,-10.76119 3.01026,-24.2691 11.64093,-28.73219 5.58692,-2.88911 10.83814,-2.41045 13.20627,1.20379 3.07435,4.69205 0.44983,10.77868 -8.34846,19.3612 -7.9059,7.71201 -8.97055,10.95112 -4.92816,14.99351 2.92389,2.92389 7.27342,2.05677 14.57681,-2.90601 2.59814,-1.76548 4.99605,-2.9378 5.32869,-2.60515 1.77471,1.7747 -14.81447,10.54746 -19.98162,10.56676 -1.79791,0.007 -4.69331,-1.10821 -6.43421,-2.47761 -2.94091,-2.31332 -3.48167,-2.35762 -7.62842,-0.625 -11.17363,4.66864 -18.26538,0.22165 -20.88559,-13.09665 -1.44413,-7.34039 -1.64662,-7.66191 -3.07683,-4.88551 -0.84203,1.63459 -2.84508,7.08391 -4.45123,12.1096 -2.58535,8.08966 -3.21183,9.04342 -5.46253,8.31621 -2.89215,-0.93446 -3.50818,-0.92797 -13.8057,0.14529 -6.99586,0.72915 -7.74474,0.55179 -10.87115,-2.57462 z m 82.75959,-29.48669 c 0,-3.30569 -1.44302,-3.028 -5.32483,1.02469 -2.99391,3.12571 -7.24486,11.30245 -7.12752,13.70985 0.10387,2.13114 12.45235,-12.48048 12.45235,-14.73454 z m 33.34005,30.03303 c -4.22677,-3.32479 -5.58699,-10.11315 -2.86025,-14.27467 1.10555,-1.68728 4.25171,-3.73939 6.99146,-4.56024 2.73975,-0.82085 5.24409,-2.39099 5.5652,-3.48919 0.92375,-3.15922 2.97428,-16.26989 3.88019,-24.80924 l 0.82881,-7.8125 5.81478,0.004 5.81476,0.004 2.14565,11.05438 c 1.18011,6.0799 2.76405,12.68086 3.51986,14.66879 l 1.3742,3.61442 2.5051,-3.11049 c 4.57283,-5.67787 16.08019,-23.47161 16.08019,-24.86465 0,-2.08182 8.22243,-1.63767 10.03129,0.54186 1.29091,1.55546 1.15978,4.2987 -0.70202,14.6875 -3.06618,17.10928 -3.20175,32.54752 -0.31125,35.44693 1.79858,1.80413 2.85334,1.93163 6.5625,0.79326 5.78524,-1.77554 5.85103,0.43904 0.0846,2.8484 -6.52591,2.7267 -10.41405,2.25463 -14.41938,-1.7507 -4.57292,-4.57293 -5.63701,-10.52079 -4.20828,-23.52294 0.62945,-5.72833 0.85038,-10.4113 0.49097,-10.4066 -0.3594,0.005 -1.99169,1.97359 -3.6273,4.37531 -1.63561,2.40172 -5.19181,6.37057 -7.90267,8.81967 -6.3284,5.71733 -7.47008,4.79984 -11.09308,-8.91469 -1.53561,-5.81289 -2.99817,-10.36274 -3.25015,-10.11076 -0.25196,0.25197 -1.28497,5.16105 -2.29557,10.90906 -1.62548,9.24524 -1.62243,10.57127 0.0264,11.49401 2.79668,1.5651 2.39406,5.0056 -0.47906,4.09371 -1.9309,-0.61285 -2.58364,0.21227 -3.7116,4.6918 -1.66065,6.59524 -6.49533,12.13335 -10.59214,12.13335 -1.65886,0 -4.47731,-1.14937 -6.26321,-2.55416 z m 6.22857,-9.59319 c 0.92477,-2.21229 1.68138,-4.60292 1.68138,-5.3125 0,-2.1695 -4.47486,-1.43802 -7.95642,1.30057 -3.74762,2.94788 -4.21552,6.30876 -1.28614,9.23814 2.50858,2.50859 5.06725,0.74007 7.56118,-5.22621 z m 70.08603,10.58485 c -2.83269,-2.13492 -5.90465,-9.96251 -5.90465,-15.04547 0,-6.8348 3.44454,-16.38786 7.15811,-19.85228 7.35066,-6.85749 13.23481,-7.81876 17.84189,-2.91475 l 2.93579,3.125 -4.31476,0 c -8.55592,0 -13.95264,7.22015 -14.11779,18.88784 -0.10994,7.7674 1.72047,11.11216 6.08108,11.11216 3.484,0 6.65647,-3.44121 8.85467,-9.60476 2.48436,-6.96595 2.22468,-8.77039 -1.39282,-9.67833 -2.59882,-0.65226 -3.12992,-1.445 -2.8125,-4.19801 0.30867,-2.67701 1.04787,-3.3939 3.49949,-3.3939 9.87704,0 5.6034,23.99231 -5.4772,30.7491 -4.48176,2.73291 -9.37672,3.05527 -12.35131,0.8134 z m 191.4984,-41.67931 c -1.76432,-2.12589 -2.1949,-8.49019 -0.81728,-12.08021 1.08924,-2.83851 4.97793,-2.78443 7.59337,0.10559 1.90551,2.10557 1.91145,2.73893 0.0763,8.125 -2.07785,6.09817 -4.06137,7.2125 -6.85232,3.84962 z"
         id="path3388"
         inkscape:connector-curvature="0" />
      <path
         style="fill:#87d6fe"
         d="m 638.34821,564.77713 c -2.57813,-1.36104 -4.6875,-3.03812 -4.6875,-3.72685 0,-0.68873 1.73828,-0.35335 3.86283,0.7453 5.62027,2.90636 7.38717,1.67388 7.38717,-5.15284 0,-5.0302 -0.28968,-5.67921 -2.1875,-4.90114 -5.12408,2.10077 -12.7829,2.17756 -15.86351,0.15906 -3.29629,-2.15981 -6.94899,-12.00179 -6.94899,-18.72363 0,-5.41881 -1.14514,-3.50869 -5.6862,9.48472 -3.674,10.51248 -4.31611,11.54056 -6.99215,11.19516 -3.54741,-0.45786 -5.95485,-0.45471 -14.37611,0.0188 -4.83703,0.27198 -7.05524,-0.2044 -8.95608,-1.9234 -2.41866,-2.1873 -2.8179,-2.1931 -9.3442,-0.13587 -8.14192,2.56651 -12.5665,1.76457 -17.00764,-3.08258 l -3.18178,-3.47266 -3.85745,4.09009 c -4.64312,4.92313 -9.6375,6.44764 -13.80902,4.21511 -2.34632,-1.25571 -3.72898,-1.29125 -6.21251,-0.15968 -5.05974,2.30537 -12.32925,1.77839 -16.07121,-1.16504 -3.1827,-2.50352 -3.55423,-2.53143 -8.31886,-0.625 -6.29579,2.51907 -12.3429,2.54722 -15.87409,0.0739 -2.92754,-2.05052 -6.5627,-12.30542 -6.5627,-18.51354 0,-5.42779 -1.15171,-3.4984 -5.66171,9.48472 -4.16015,11.97598 -6.10735,14.00285 -9.85353,10.25668 -1.50783,-1.50784 -3.22556,-1.85164 -6.33587,-1.26814 -8.27563,1.55251 -16.89889,-5.0313 -16.89889,-12.9022 0,-4.64439 -2.01487,-3.76101 -3.42321,1.50084 -1.72189,6.43335 -6.55779,13.83005 -9.3998,14.37737 -3.03505,0.5845 -6.89724,-6.46484 -7.88844,-14.39808 -0.82677,-6.61732 1.19883,-25.12889 2.93371,-26.81054 0.4965,-0.48127 2.63006,-0.14141 4.74124,0.75524 l 3.8385,1.63026 -1.78631,10.79977 c -2.45513,14.84323 -0.44305,24.34763 3.56782,16.85325 0.78182,-1.46082 3.00774,-8.91395 4.94653,-16.5625 3.00031,-11.83636 3.86519,-13.84132 5.81001,-13.46888 4.35551,0.83409 6.79128,2.80379 6.12254,4.95105 -1.72269,5.53149 -2.88798,19.25831 -1.97755,23.29504 1.48494,6.58399 3.44204,8.37926 8.65797,7.94203 l 4.48199,-0.3757 0.90043,-11.875 c 0.49523,-6.53125 1.5249,-14.50182 2.28816,-17.71239 1.36915,-5.75925 1.43661,-5.82034 5.03937,-4.56441 2.0084,0.70013 3.93335,1.72879 4.27768,2.28591 0.34431,0.55712 -0.18025,4.29861 -1.16571,8.31442 -0.98545,4.01581 -2.12598,9.83272 -2.53451,12.92647 -0.68566,5.19243 -0.41584,4.84291 3.5086,-4.54508 6.64467,-15.89527 8.24796,-18.1338 12.67643,-17.69902 3.17031,0.31125 3.71518,0.85889 3.47644,3.4941 -0.15571,1.71875 -0.65409,7.14124 -1.10753,12.04999 -1.01022,10.93658 -0.13312,14.80349 3.96714,17.49008 2.70294,1.77103 3.8971,1.8514 8.22819,0.55378 4.3366,-1.29928 4.95852,-1.91051 4.31767,-4.24339 -1.9501,-7.09887 -2.16797,-12.59448 -0.80875,-20.39968 1.33719,-7.67874 1.26867,-8.64056 -0.7192,-10.09413 -2.0416,-1.49285 -2.00775,-1.60665 0.4778,-1.60665 2.14103,0 3.10054,-1.34986 4.80653,-6.76186 1.63456,-5.18541 2.59657,-6.59822 4.12637,-6.06 3.99488,1.40551 6.4192,4.44228 5.66338,7.09409 -0.40803,1.43152 -1.01638,3.58714 -1.3519,4.79027 -0.4988,1.78854 0.20322,2.1875 3.84917,2.1875 2.45259,0 4.45924,0.5625 4.45924,1.25 0,0.6875 -2.21012,1.25 -4.91138,1.25 l -4.91137,0 -1.52012,7.1875 c -2.25097,10.64318 -1.99189,20.72732 0.63556,24.73731 1.98431,3.02844 2.7758,3.30807 7.77008,2.74514 3.05839,-0.34473 5.79894,-0.86499 6.09009,-1.15615 0.29116,-0.29115 -0.0754,-2.71972 -0.81459,-5.39681 -4.42922,-16.04134 8.41435,-36.90688 19.25557,-31.28239 2.1043,1.09173 3.5936,1.22796 4.41747,0.40409 0.82388,-0.82387 2.44325,-0.65962 4.8033,0.48719 3.1246,1.51834 3.48584,2.26063 2.95135,6.06461 -0.33496,2.38398 -0.61621,9.05253 -0.625,14.81901 -0.015,9.84466 0.18252,10.63302 3.23621,12.9182 2.92173,2.18641 3.78793,2.27319 8.52472,0.85401 4.44375,-1.33138 5.15792,-1.98657 4.54338,-4.1682 -1.88417,-6.68894 -2.10787,-13.58868 -0.70936,-21.88 1.50021,-8.89425 1.57755,-9.02586 4.82488,-8.21083 5.86615,1.47231 6.11486,2.24823 4.24972,13.25798 -2.04902,12.09521 -1.05537,17.95179 3.64065,21.45788 2.62663,1.96106 4.00878,2.21717 6.8568,1.27053 3.51394,-1.16797 3.58028,-1.37018 4.45613,-13.58484 0.489,-6.81958 1.51866,-15.02605 2.28816,-18.23662 1.38007,-5.75812 1.44865,-5.8201 5.05071,-4.56441 2.0084,0.70013 3.93335,1.72879 4.27768,2.28591 0.34431,0.55712 -0.18025,4.29861 -1.16572,8.31442 -0.98545,4.01581 -2.12597,9.83272 -2.5345,12.92647 -0.68566,5.19243 -0.41584,4.84291 3.5086,-4.54507 6.64467,-15.89528 8.24795,-18.13381 12.67643,-17.69903 3.1792,0.31212 3.71157,0.8515 3.44877,3.4941 -0.17091,1.71875 -0.66798,7.99725 -1.10458,13.95222 -0.77535,10.5753 -0.7153,10.90576 2.58112,14.20218 2.75485,2.75485 4.09899,3.23015 7.31554,2.58684 5.44774,-1.08955 5.85968,-1.82695 4.60386,-8.24124 -1.51825,-7.75472 -1.47886,-22.16228 0.0685,-25.05353 2.23219,-4.17088 5.66974,-5.2105 10.52332,-3.18254 6.73901,2.81573 7.46928,11.67049 1.98501,24.06861 -1.52795,3.45419 -2.33438,8.11289 -2.30438,13.31237 0.0846,14.66972 -4.8746,18.90314 -15.5451,13.26998 z m -88.54169,-22.54407 c 2.82195,-4.64033 4.34249,-13.55198 3.1999,-18.75417 -1.84076,-8.38091 -9.79426,-1.06277 -11.37442,10.46578 -1.59537,11.63938 3.18751,16.48887 8.17452,8.28839 z m 106.20044,-9.1531 c 1.75193,-6.9575 1.81009,-13.21772 0.12281,-13.21772 -2.0684,0 -3.71906,5.89423 -3.71906,13.28015 0,7.96252 1.58248,7.93505 3.59625,-0.0624 z m -533.42054,18.61332 c -5.41641,-4.55761 -7.30279,-13.73862 -5.30649,-25.82668 1.35782,-8.22191 1.29436,-9.22609 -0.67405,-10.66542 -2.00651,-1.4672 -1.96804,-1.58894 0.50204,-1.58894 2.14103,0 3.10054,-1.34986 4.80653,-6.76186 1.63456,-5.18541 2.59657,-6.59822 4.12637,-6.06 3.99488,1.40551 6.41921,4.44228 5.66338,7.09409 -0.40802,1.43152 -1.01638,3.58714 -1.35191,4.79027 -0.49879,1.78854 0.20323,2.1875 3.84918,2.1875 2.45258,0 4.45924,0.5625 4.45924,1.25 0,0.6875 -2.21012,1.25 -4.91138,1.25 l -4.91138,0 -1.52011,7.1875 c -2.25097,10.64318 -1.99189,20.72732 0.63556,24.73731 1.98858,3.03496 2.76973,3.30875 7.81704,2.73984 3.08423,-0.34763 6.09634,-1.12072 6.69358,-1.71796 0.61453,-0.61453 0.5041,-3.37799 -0.25439,-6.36624 -2.63841,-10.39452 1.85201,-23.17774 10.09247,-28.73099 5.44113,-3.66677 9.11329,-3.60245 13.4764,0.23604 l 3.50721,3.0855 -5.09461,0.0395 c -7.64443,0.0593 -12.28099,5.84549 -13.63093,17.01078 -0.88083,7.28524 1.19052,12.21058 5.38813,12.81217 3.70663,0.53123 6.32549,-1.73648 9.13305,-7.90845 3.2432,-7.12963 3.00377,-10.18471 -0.87446,-11.15809 -2.59883,-0.65226 -3.12993,-1.445 -2.8125,-4.19801 0.30866,-2.67701 1.04786,-3.3939 3.49948,-3.3939 6.8341,0 7.4002,11.10262 1.18707,23.28135 -4.22802,8.28762 -13.67768,12.23088 -19.35748,8.07771 -2.08044,-1.52126 -3.00068,-1.52126 -6.64156,0 -6.64213,2.77525 -13.15012,2.25335 -17.49548,-1.40302 z m 80.12562,0.1057 c -5.55032,-4.67029 -7.44764,-13.7279 -5.43211,-25.93238 1.35782,-8.22191 1.29436,-9.22609 -0.67405,-10.66542 -2.00651,-1.4672 -1.96804,-1.58894 0.50204,-1.58894 2.14103,0 3.10054,-1.34986 4.80653,-6.76186 1.63455,-5.18541 2.59657,-6.59822 4.12637,-6.06 3.99488,1.40551 6.41921,4.44228 5.66338,7.09409 -0.40802,1.43152 -1.01638,3.58714 -1.35191,4.79027 -0.49879,1.78854 0.20323,2.1875 3.84919,2.1875 2.45257,0 4.45923,0.5625 4.45923,1.25 0,0.6875 -2.21012,1.25 -4.91138,1.25 l -4.91138,0 -1.52011,7.1875 c -3.65985,17.30469 -1.12845,27.83043 6.68419,27.79336 6.76567,-0.0321 7.27835,-0.99312 7.74235,-14.51295 0.26712,-7.78319 1.67688,-17.64358 3.7802,-26.44 l 3.35421,-14.02791 4.89096,0 c 5.56085,0 5.54377,-0.0465 3.02711,8.23884 -2.36275,7.77862 -8.41853,36.89545 -7.80186,37.51212 0.25478,0.25478 2.02862,-3.60683 3.94186,-8.58136 1.91325,-4.97453 4.87938,-11.4832 6.5914,-14.46371 2.76182,-4.80811 3.48707,-5.32516 6.43255,-4.58589 1.82587,0.45827 3.5419,1.05533 3.81339,1.32682 0.27148,0.27148 -0.14924,3.69458 -0.93494,7.60687 -3.91268,19.48265 0.15947,28.47231 11.48137,25.34618 4.33358,-1.19656 4.36129,-1.24863 3.09836,-5.82263 -2.48477,-8.99905 1.56662,-22.25496 8.45866,-27.67623 4.13009,-3.24873 10.7378,-4.54838 14.06678,-2.76676 6.32174,3.38329 3.98766,10.85162 -6.68582,21.39251 -7.48952,7.39649 -8.4729,10.84824 -4.28396,15.03718 3.02699,3.02698 5.52977,2.54477 13.64454,-2.62886 3.07091,-1.95789 5.84235,-3.30092 6.15874,-2.98452 0.93202,0.93201 -3.75733,4.21594 -10.90295,7.63531 -7.09088,3.39318 -12.54508,3.33595 -16.42166,-0.1723 -1.72985,-1.5655 -2.65877,-1.57085 -6.95701,-0.04 -12.92899,4.60468 -19.85429,-0.89089 -20.86726,-16.55921 -0.18884,-2.92087 -0.72859,-5.3115 -1.19944,-5.3125 -0.47086,-10e-4 -2.71021,5.65478 -4.97634,12.56842 -3.70044,11.2895 -4.37737,12.48471 -6.6439,11.73065 -2.78996,-0.92819 -4.55874,-0.90595 -13.86463,0.17437 -5.59865,0.64995 -6.79657,0.35277 -10.2327,-2.53854 z m 82.19867,-29.52393 c 0,-6.76598 -9.92956,3.35012 -11.74161,11.96219 -0.75024,3.56561 -0.48097,3.42303 5.47629,-2.89969 3.44592,-3.65733 6.26532,-7.73545 6.26532,-9.0625 z m 34.68747,31.23705 c -2.70927,-1.57801 -5.93747,-7.63888 -5.93747,-11.14747 0,-3.32378 5.3684,-8.36012 9.99435,-9.37615 4.44945,-0.97726 4.62042,-1.45826 7.17524,-20.18583 l 2.10638,-15.44041 5.98702,0 c 5.27215,0 5.98701,0.31735 5.98701,2.65777 0,4.01208 5.05774,24.73037 6.21119,25.44324 1.17983,0.72918 8.78761,-9.16086 15.60665,-20.28851 3.99086,-6.5125 5.35646,-7.8125 8.20677,-7.8125 6.05691,0 6.71895,2.28935 4.47274,15.46701 -5.55011,32.56031 -3.83075,41.29441 7.29628,37.06393 1.97011,-0.74904 3.20637,-0.76599 3.20637,-0.044 0,1.73379 -4.00416,3.57426 -9.78861,4.49923 -4.53267,0.7248 -5.51417,0.40335 -8.79949,-2.88197 -4.65933,-4.65933 -5.88713,-11.93724 -4.2274,-25.05824 0.67284,-5.31904 1.15969,-9.75564 1.08191,-9.85911 -0.0777,-0.10348 -3.25274,3.55277 -7.05546,8.125 -3.86653,4.64893 -8.10186,8.48466 -9.6089,8.70228 -2.3632,0.34124 -3.08914,-0.85896 -5.89846,-9.75203 -1.76198,-5.57765 -3.20359,-11.04964 -3.20359,-12.15998 0,-4.35391 -1.14748,-0.45578 -3.01451,10.2407 -1.72757,9.89742 -1.73864,11.32092 -0.0953,12.24064 2.76075,1.54499 2.39297,5.00424 -0.43657,4.10618 -1.85121,-0.58755 -2.60041,0.30464 -3.86543,4.60326 -2.81652,9.57059 -9.50908,14.28857 -15.40082,10.85694 z m 4.48222,-9.37222 c 2.80928,-5.89114 2.63586,-8.02764 -0.65163,-8.02764 -3.34265,0 -8.51806,4.63499 -8.51806,7.62861 0,2.86046 3.37,6.18875 5.45586,5.38833 0.89844,-0.34476 2.56965,-2.58995 3.71383,-4.9893 z m 69.64625,8.28829 c -8.47267,-8.47265 -5.00872,-29.75195 6.05641,-37.20505 5.46046,-3.67798 9.12886,-3.61693 13.49545,0.22462 l 3.5072,3.0855 -5.09461,0.0395 c -7.64443,0.0593 -12.28099,5.84549 -13.63094,17.01078 -0.88081,7.28524 1.19052,12.21058 5.38814,12.81217 3.70663,0.53123 6.32548,-1.73648 9.13306,-7.90845 3.2432,-7.12963 3.00376,-10.18471 -0.87448,-11.15809 -2.59882,-0.65226 -3.12992,-1.445 -2.8125,-4.19801 0.30867,-2.67701 1.04787,-3.3939 3.49949,-3.3939 6.8341,0 7.4002,11.10261 1.18708,23.28135 -4.45545,8.73339 -14.70528,12.55861 -19.8543,7.40958 z M 586.16632,511.744 c -1.59147,-1.9176 -2.02509,-10.87546 -0.6353,-13.12418 1.16715,-1.88848 3.79988,-1.51939 6.63316,0.92992 2.3902,2.06627 2.43042,2.51654 0.72565,8.125 -1.84858,6.08163 -3.98186,7.37275 -6.72351,4.06926 z"
         id="path3386"
         inkscape:connector-curvature="0" />
      <path
         style="fill:#6bccfe"
         d="m 638.97321,564.8959 c -2.92188,-1.32629 -5.3125,-3.03333 -5.3125,-3.79342 0,-0.84019 1.08917,-0.61912 2.77814,0.56388 4.14061,2.9002 7.11098,2.40024 8.57212,-1.44283 1.79834,-4.72998 0.44661,-9.61018 -2.3401,-8.44859 -1.17433,0.4895 -4.67176,1.16172 -7.77205,1.4938 -4.87628,0.52233 -6.08762,0.15308 -8.97719,-2.73648 -3.1492,-3.14921 -6.01092,-11.92818 -6.01092,-18.43988 0,-4.31 -1.4025,-1.69178 -5.66171,10.56937 -4.04444,11.64286 -6.22426,14.09042 -9.4621,10.6243 -1.32663,-1.42015 -2.36845,-1.44158 -6.05184,-0.1245 -6.46165,2.3105 -9.19201,2.06272 -14.11986,-1.28141 -2.93109,-1.98909 -4.9663,-2.61334 -6.11193,-1.87467 -7.5504,4.86828 -18.3985,3.54177 -22.2035,-2.71504 l -2.16744,-3.56409 -2.25466,3.81684 c -3.103,5.25295 -9.82777,7.99068 -14.68538,5.97859 -2.75874,-1.14271 -4.40416,-1.16324 -6.77172,-0.0845 -4.99827,2.27736 -12.2807,1.73334 -16.00421,-1.19558 -3.1827,-2.50351 -3.55422,-2.53143 -8.31886,-0.625 -7.41521,2.96698 -12.76708,2.57436 -16.55601,-1.21458 -3.01794,-3.01793 -5.88078,-11.93134 -5.88078,-18.30972 0,-4.31 -1.4025,-1.69178 -5.66171,10.56937 -4.16015,11.97598 -6.10735,14.00285 -9.85353,10.25668 -1.50783,-1.50784 -3.22556,-1.85164 -6.33587,-1.26814 -9.19772,1.7255 -16.89889,-5.07602 -16.89889,-14.92475 0,-5.63546 -1.92425,-4.69925 -3.08765,1.50225 -1.7763,9.46846 -8.32214,18.22833 -11.94707,15.98799 -2.34074,-1.44665 -4.64951,-7.50078 -5.48592,-14.38539 -0.72229,-5.94518 1.01178,-23.88509 2.55723,-26.45599 0.28526,-0.47457 2.24926,-0.25956 4.36442,0.47779 l 3.84574,1.34063 -1.06088,7.02221 c -1.32556,8.77425 -1.37895,22.12464 -0.0936,23.40779 2.16196,2.15827 4.94564,-3.57837 8.3006,-17.10591 3.49637,-14.09779 3.58584,-14.27632 7.02455,-14.01692 4.978,0.37551 5.71342,1.66493 4.14924,7.27488 -0.76099,2.72931 -1.45293,8.64244 -1.53764,13.14031 -0.1958,10.39655 2.34317,14.95624 8.3123,14.92792 2.21852,-0.0105 4.59619,-0.4324 5.28369,-0.9375 0.6875,-0.5051 1.38156,-5.69961 1.54236,-11.54336 0.16079,-5.84375 0.90099,-13.56461 1.64489,-17.15747 l 1.35252,-6.53247 3.98011,1.65628 c 4.47049,1.86034 4.42557,1.40256 1.51678,15.45428 -2.33978,11.30298 -2.01028,16.35331 0.55159,8.45438 0.89191,-2.75 3.55613,-9.1107 5.9205,-14.13489 4.12435,-8.76409 4.46003,-9.11927 8.27005,-8.75 3.16186,0.30645 3.8966,0.89439 3.60512,2.88489 -0.20134,1.375 -0.69391,7.58956 -1.09461,13.81013 -0.69074,10.72311 -0.56971,11.4948 2.33195,14.86819 2.63377,3.06194 3.65787,3.44315 7.34462,2.73398 7.15499,-1.37632 7.58349,-2.02661 6.1871,-9.38972 -0.8329,-4.39189 -0.82407,-9.53441 0.0266,-15.5329 1.12744,-7.94949 1.02751,-9.14594 -0.88034,-10.541 -1.98002,-1.44786 -1.94143,-1.57368 0.48266,-1.57368 2.08168,0 3.11581,-1.44112 4.92642,-6.86526 l 2.29166,-6.86526 3.99269,2.42943 c 3.71026,2.25758 3.9092,2.72052 2.8125,6.54451 -1.69037,5.89394 -1.63045,6.00658 3.19481,6.00658 2.40625,0 4.375,0.5625 4.375,1.25 0,0.6875 -2.1939,1.25 -4.87532,1.25 -4.84773,0 -4.88425,0.0371 -6.45254,6.5625 -2.44127,10.15758 -2.21887,21.00764 0.51639,25.19364 2.10076,3.21497 2.82491,3.48294 7.87424,2.91381 3.05839,-0.34473 5.78257,-0.84862 6.0537,-1.11976 0.27114,-0.27114 -0.0674,-2.98676 -0.75216,-6.03471 -2.19312,-9.76087 1.43274,-22.72922 7.86919,-28.14514 3.85104,-3.24043 11.39238,-4.29598 12.92901,-1.80964 0.5633,0.91144 1.29905,0.90487 2.41534,-0.0216 1.56375,-1.29781 4.93465,-0.69243 7.63446,1.37107 0.94353,0.72115 0.84086,3.88466 -0.34863,10.74346 -2.01898,11.64162 -1.22012,17.85596 2.77827,21.61225 2.33769,2.19615 3.84613,2.61952 7.10065,1.99292 7.07061,-1.36132 7.4338,-1.96351 5.87265,-9.73708 -1.45105,-7.22529 0.33305,-23.97423 2.71024,-25.44341 0.6056,-0.37428 2.76195,0.17835 4.79187,1.22806 3.36849,1.74192 3.59837,2.26488 2.63244,5.98859 -2.15661,8.31379 -2.65859,16.97318 -1.28059,22.09067 1.67248,6.21111 5.13309,8.30712 11.14385,6.74957 l 4.0745,-1.0558 0.3868,-11.27096 c 0.21274,-6.19902 1.05136,-14.47213 1.86361,-18.38468 l 1.47681,-7.11373 3.98011,1.65627 c 4.47048,1.86035 4.42556,1.40256 1.51677,15.45429 -2.33977,11.30298 -2.01027,16.3533 0.55159,8.45437 0.89191,-2.75 3.55614,-9.1107 5.9205,-14.13489 4.12435,-8.76409 4.46004,-9.11926 8.27005,-8.75 3.16186,0.30645 3.8966,0.8944 3.60512,2.88489 -0.20133,1.375 -0.69391,7.58956 -1.09461,13.81013 -0.69442,10.78033 -0.58206,11.48044 2.3987,14.94579 2.90179,3.37353 3.4764,3.54873 7.96963,2.43 4.13333,-1.02913 4.80097,-1.66178 4.5597,-4.32079 -2.4728,-27.25135 -1.64074,-31.59489 6.17769,-32.24884 7.12629,-0.59606 10.24276,3.22176 9.37085,11.47973 -0.3719,3.52219 -1.84948,9.12249 -3.28353,12.44511 -1.81504,4.20538 -2.60735,8.68582 -2.60735,14.74432 0,7.57375 -0.39816,9.10135 -3.06819,11.77137 -3.6728,3.6728 -4.73287,3.72771 -11.61931,0.60184 z m -90.00548,-20.97116 c 4.2077,-4.73353 6.11847,-19.1352 3.08857,-23.27884 -1.51999,-2.07871 -1.77132,-2.06286 -4.77669,0.30117 -1.74476,1.37242 -3.83528,4.70817 -4.6456,7.41277 -1.59718,5.33089 -1.98464,15.5744 -0.63996,16.91907 1.53175,1.53175 5.00848,0.85662 6.97368,-1.35417 z m 107.02238,-10.18653 c 1.76925,-5.29183 1.85565,-13.87597 0.13966,-13.87597 -2.0844,0 -3.71906,5.91455 -3.71906,13.45638 0,7.44859 1.18299,7.58727 3.5794,0.41959 z M 123.9317,552.91136 c -6.1013,-4.27352 -8.3577,-13.84861 -6.44371,-27.34403 1.10408,-7.78475 0.9992,-8.99051 -0.90297,-10.38141 -1.98007,-1.44786 -1.94148,-1.57368 0.48261,-1.57368 2.08167,0 3.1158,-1.44112 4.92641,-6.86526 l 2.29167,-6.86526 3.99269,2.42943 c 3.71026,2.25758 3.9092,2.72052 2.8125,6.54451 -1.69036,5.89394 -1.63045,6.00658 3.19481,6.00658 2.40625,0 4.375,0.5625 4.375,1.25 0,0.6875 -2.1939,1.25 -4.87532,1.25 -4.84773,0 -4.88426,0.0371 -6.45255,6.5625 -2.44125,10.15758 -2.21886,21.00764 0.5164,25.19364 2.10523,3.22182 2.81839,3.48367 7.9212,2.90851 7.23914,-0.81595 8.01387,-1.72933 6.60814,-7.79075 -4.28376,-18.47128 11.8439,-38.7972 23.10087,-29.11436 l 3.47662,2.99046 -4.68106,0 c -3.67619,0 -5.43889,0.84816 -8.21132,3.95104 -6.41696,7.18183 -7.84711,20.4157 -2.75548,25.49788 3.21058,3.20463 7.73587,0.63715 11.29,-6.40553 3.68287,-7.29781 3.60079,-10.53293 -0.3125,-12.31595 -3.80008,-1.73143 -4.13775,-5.98754 -0.56502,-7.12148 4.16029,-1.32042 6.19133,1.51012 6.17781,8.6096 -0.03,15.75632 -12.43116,28.4012 -22.19646,22.6327 -3.34595,-1.97651 -3.90089,-1.98509 -7.51496,-0.11618 -4.95149,2.56052 -12.65011,2.59227 -16.25538,0.067 z m 80.03437,0.0692 c -6.15118,-4.40685 -8.39457,-13.90018 -6.47808,-27.41321 1.10408,-7.78475 0.9992,-8.99051 -0.90297,-10.38141 -1.98007,-1.44786 -1.94149,-1.57368 0.48261,-1.57368 2.08167,0 3.1158,-1.44112 4.92641,-6.86526 l 2.29167,-6.86526 3.99269,2.42943 c 3.71026,2.25758 3.9092,2.72052 2.8125,6.54451 -1.69036,5.89394 -1.63045,6.00658 3.19481,6.00658 2.40625,0 4.375,0.5625 4.375,1.25 0,0.6875 -2.18322,1.25 -4.85161,1.25 -4.66755,0 -4.90164,0.20154 -6.17049,5.3125 -2.79063,11.2407 -3.00716,20.03287 -0.6079,24.68383 2.43377,4.71788 4.6757,5.64852 10.82727,4.49448 l 3.94761,-0.74057 0.19528,-12.18762 c 0.1816,-11.33317 3.36393,-29.93483 6.52236,-38.12512 1.0987,-2.84911 2.07975,-3.4375 5.73154,-3.4375 2.42327,0 4.40594,0.23112 4.40594,0.51359 0,0.28248 -1.36897,5.76685 -3.04216,12.1875 -3.66275,14.05538 -7.35476,32.31866 -6.67149,33.00193 0.27152,0.27152 2.38004,-4.12002 4.68561,-9.75898 7.2707,-17.7827 9.44113,-20.35185 14.23308,-16.84789 1.87963,1.37442 2.00389,2.37285 0.89447,7.1875 -1.62963,7.07226 -1.7071,17.61309 -0.15935,21.68397 1.82268,4.79398 5.71313,6.35688 11.50461,4.62171 4.45648,-1.3352 4.75351,-1.70513 3.87817,-4.83013 -2.70902,-9.67135 1.07142,-23.49156 7.894,-28.85819 7.38926,-5.8124 16.78306,-4.43827 16.78306,2.45504 0,5.36882 -2.61075,9.73621 -9.89085,16.54589 -7.05666,6.60068 -8.04363,10.41359 -3.79521,14.662 3.04092,3.04092 5.40855,2.58169 14.22621,-2.75935 3.39084,-2.0539 5.40444,-2.81775 4.47466,-1.69743 -2.45002,2.9521 -11.23145,7.76044 -15.98213,8.75116 -2.99863,0.62534 -5.22353,0.186 -8.32492,-1.64386 -3.84268,-2.26724 -4.67474,-2.33962 -9.03266,-0.78574 -2.64006,0.94135 -6.22181,1.73624 -7.95946,1.76641 -7.13823,0.12397 -12.46564,-7.58147 -12.46564,-18.02998 0,-3.11583 -0.50543,-5.66515 -1.12318,-5.66515 -0.61775,0 -2.68366,4.35937 -4.59092,9.6875 -1.90725,5.32812 -3.94088,11.01031 -4.51919,12.62707 -0.78444,2.19307 -1.60256,2.69664 -3.22158,1.98296 -2.27599,-1.00328 -3.29092,-0.9926 -13.42013,0.14122 -4.6263,0.51784 -6.98252,0.1748 -9.06964,-1.32046 z m 80.41808,-28.35986 c 1.09221,-2.08045 1.30149,-3.65451 0.54781,-4.12031 -3.21021,-1.98402 -10.1274,5.96068 -11.96025,13.73687 l -0.88386,3.75 5.26445,-5 c 2.89546,-2.75 6.05979,-6.51495 7.03185,-8.36656 z m 33.59475,27.17338 c -1.6875,-1.6875 -3.05109,-3.79688 -3.03018,-4.6875 0.0229,-0.97692 0.54346,-0.75151 1.31212,0.56818 2.63411,4.52251 6.55178,1.47891 9.6183,-7.47237 1.66967,-4.87384 0.60437,-5.75836 -4.70579,-3.90723 -2.58702,0.90184 -4.63003,2.79407 -5.71967,5.29753 -0.93231,2.14201 -1.71713,3.21791 -1.74405,2.39089 -0.12982,-3.99013 3.1529,-7.82967 8.64596,-10.11248 l 5.88718,-2.4466 1.40557,-8.59362 c 0.77304,-4.72649 1.79133,-12.41803 2.26285,-17.0923 l 0.8573,-8.49869 5.74737,0.37369 c 4.64133,0.30177 5.81658,0.85479 6.107,2.87368 1.15875,8.05506 5.63051,25.625 6.52186,25.625 1.44182,0 11.99199,-14.15242 16.54008,-22.1875 3.08711,-5.454 4.30197,-6.5625 7.19217,-6.5625 6.19969,0 6.58265,1.90145 3.808,18.90702 -4.07882,24.99877 -3.1883,34.84298 3.15198,34.84298 1.78096,0 4.39122,-0.61712 5.80056,-1.37138 2.01711,-1.07952 2.44397,-1.01593 2.00572,0.2988 -0.8654,2.59622 -11.29676,5.11648 -15.13581,3.65687 -5.76716,-2.19266 -7.73727,-6.93741 -7.58557,-18.26869 0.0749,-5.5927 0.50955,-12.36726 0.96593,-15.05457 l 0.8298,-4.88603 -2.57871,3.125 c -15.14979,18.35921 -16.2268,18.75067 -19.77502,7.1875 -1.31853,-4.29688 -2.8009,-9.68085 -3.29418,-11.96438 -0.49327,-2.28354 -1.19947,-3.84928 -1.56932,-3.47943 -0.36985,0.36985 -1.46237,5.60535 -2.42782,11.63445 -1.5614,9.75074 -1.54301,11.11728 0.1664,12.36723 2.70694,1.97936 2.44245,4.58835 -0.3745,3.69429 -1.8446,-0.58545 -2.6044,0.29963 -3.86277,4.49969 -1.83357,6.11992 -7.51689,12.31065 -11.30161,12.31065 -1.45914,0 -4.03365,-1.38068 -5.72115,-3.06818 z m 76.44531,0.37114 c -8.5654,-7.38844 -6.07663,-28.67411 4.2365,-36.23351 5.36562,-3.93293 10.35961,-4.21541 14.31875,-0.80991 l 3.47661,2.99046 -4.68106,0 c -3.67619,0 -5.43889,0.84816 -8.21131,3.95104 -6.41698,7.18183 -7.84712,20.4157 -2.75549,25.49788 3.21059,3.20463 7.73588,0.63715 11.29,-6.40553 3.68288,-7.29781 3.60079,-10.53293 -0.3125,-12.31595 -3.80008,-1.73143 -4.13775,-5.98754 -0.56501,-7.12148 4.16027,-1.32042 6.19132,1.51012 6.1778,8.6096 -0.0314,16.4539 -13.91574,29.65123 -22.97429,21.8374 z m 191.78048,-40.97078 c -1.94967,-3.64299 -1.62764,-12.53261 0.48334,-13.34267 2.87572,-1.10351 6.97268,1.83021 6.97268,4.99294 0,4.54722 -2.57264,10.76755 -4.4533,10.76755 -0.93981,0 -2.29104,-1.08802 -3.00272,-2.41782 z"
         id="path3384"
         inkscape:connector-curvature="0" />
      <path
         style="fill:#55c6fe"
         d="m 639.28571,564.19694 c -3.4375,-1.72322 -5.125,-2.76865 -3.75,-2.32317 6.42131,2.0804 7.9138,1.96876 9.34141,-0.69878 0.79074,-1.47751 1.26242,-4.20544 1.04815,-6.06207 -0.4135,-3.58305 -0.48476,-3.59721 -10.08613,-2.00425 -8.77681,1.45615 -14.39028,-5.37897 -14.94819,-18.20133 -0.15065,-3.4623 -0.66089,-6.2951 -1.13385,-6.2951 -0.73305,0 -6.34698,14.38742 -9.14524,23.4375 -0.9816,3.17467 -3.44395,3.65727 -5.57276,1.0922 -1.21099,-1.45915 -2.21137,-1.4503 -6.59,0.0583 -5.83123,2.00902 -10.24124,1.40205 -14.7427,-2.02909 -2.86149,-2.18111 -3.34779,-2.20805 -6.875,-0.38077 -2.08763,1.08151 -6.25033,2.01824 -9.25045,2.08163 -4.79128,0.10124 -5.93555,-0.44083 -9.40746,-4.45654 l -3.9527,-4.5718 -3.97533,4.73506 c -4.61966,5.50255 -9.39054,7.17879 -13.27961,4.66578 -2.2243,-1.43728 -3.31794,-1.45657 -6.43014,-0.11341 -5.73545,2.4753 -12.31461,2.10343 -16.14911,-0.91279 -3.23078,-2.54133 -3.5665,-2.56559 -8.64788,-0.625 -7.02117,2.68141 -11.07117,2.54575 -14.94395,-0.50058 -3.77038,-2.96578 -5.81832,-8.47738 -6.17235,-16.61149 -0.14047,-3.22794 -0.64238,-5.86897 -1.11535,-5.86897 -0.73303,0 -6.34698,14.38752 -9.14521,23.4375 -0.99241,3.20964 -3.44899,3.65118 -5.63816,1.01339 -1.01483,-1.22279 -3.65754,-1.72331 -8.24985,-1.5625 -6.04825,0.2118 -7.165,-0.17122 -10.6504,-3.65289 -2.97444,-2.97126 -4.11322,-5.47965 -4.8236,-10.625 -0.98247,-7.11586 -1.09597,-7.00983 -4.31363,4.02983 -2.26146,7.75896 -7.08967,13.98626 -9.98312,12.87594 -1.01712,-0.39031 -2.80397,-2.72145 -3.97078,-5.18033 -1.72906,-3.64373 -2.02092,-7.0975 -1.57789,-18.67196 0.60574,-15.82518 1.53163,-17.96498 6.74548,-15.58939 2.89217,1.31776 3.20326,2.0113 2.47984,5.5286 -2.79008,13.56545 -2.30051,25.89681 1.02812,25.89681 2.21344,0 3.8547,-4.16565 7.56324,-19.19605 1.67203,-6.77658 3.35256,-12.63358 3.73454,-13.01555 0.38197,-0.38198 2.14285,-0.0346 3.91305,0.77197 3.10997,1.417 3.18395,1.70847 2.19279,8.64055 -2.86403,20.03058 -0.51087,26.9899 8.89162,26.29634 l 5.04677,-0.37226 0.31072,-10.625 c 0.34426,-11.77233 2.42707,-23.75 4.12991,-23.75 0.60641,0 2.55701,0.66269 4.33467,1.47265 2.19432,0.99979 2.98162,2.10355 2.45197,3.4375 -1.45819,3.67249 -4.2731,18.19899 -4.2563,21.96485 0.0126,2.83549 1.18956,0.93342 4.82602,-7.79952 7.15003,-17.17076 8.83474,-19.19719 14.23662,-17.1243 1.46937,0.56385 1.59787,1.72206 0.65608,5.91365 -1.65455,7.36382 -1.59298,21.24544 0.10825,24.42432 1.79406,3.35225 6.57069,4.6229 11.7596,3.12823 l 3.97829,-1.14593 -0.41345,-11.19823 c -0.2274,-6.15902 0.14917,-13.65335 0.83684,-16.65407 1.15996,-5.06173 1.05438,-5.50812 -1.46155,-6.17941 -2.65523,-0.70846 -2.64854,-0.73881 0.32048,-1.45363 2.23445,-0.53797 3.51288,-2.20106 4.85864,-6.32059 2.30784,-7.06456 2.11465,-6.89902 5.99038,-5.13312 3.02916,1.38018 3.2059,1.89523 2.42868,7.07805 l -0.83821,5.58955 4.4516,0 c 2.44838,0 4.45159,0.5625 4.45159,1.25 0,0.6875 -2.22833,1.25 -4.95183,1.25 -4.75765,0 -5.01047,0.20831 -6.44791,5.3125 -0.82286,2.92187 -1.54766,9.60952 -1.61068,14.86142 -0.13794,11.49597 1.9252,14.83768 9.14166,14.80694 7.0234,-0.0299 7.9321,-1.12994 6.43859,-7.79429 -2.3175,-10.34115 2.17633,-24.29332 9.20512,-28.57947 4.44266,-2.70913 9.49381,-3.04694 11.8813,-0.7946 1.24644,1.17588 1.79052,1.19834 2.1989,0.0908 0.77278,-2.09582 7.89485,0.5357 7.89485,2.91705 0,1.00418 -0.61455,5.78665 -1.36566,10.62771 -1.58391,10.20856 -0.74113,16.44516 2.68539,19.87167 2.90669,2.90671 6.00185,3.06066 11.90926,0.59239 3.95221,-1.65134 4.25413,-2.10799 2.97456,-4.49891 -1.82853,-3.41663 -1.83773,-17.91591 -0.0156,-24.68253 1.59372,-5.91865 1.3215,-5.74233 5.75027,-3.72445 2.92361,1.33209 3.21954,2.0185 2.55968,5.9375 -3.02344,17.95691 -2.38231,25.17771 2.52083,28.39037 2.46018,1.61196 4.16183,1.81562 7.75409,0.92804 l 4.6022,-1.13713 0.26731,-11.14673 c 0.29055,-12.11574 2.38016,-24.47827 4.13749,-24.47827 0.60641,0 2.55701,0.66269 4.33467,1.47265 2.19432,0.99979 2.98162,2.10355 2.45197,3.4375 -1.45819,3.67249 -4.2731,18.19899 -4.2563,21.96485 0.0126,2.83549 1.18956,0.93342 4.82602,-7.79952 7.15003,-17.17076 8.83474,-19.19719 14.23662,-17.1243 1.46937,0.56385 1.59787,1.72206 0.65608,5.91365 -1.6394,7.29644 -1.59883,21.23452 0.0709,24.35443 1.78771,3.34038 5.46032,4.4853 11.03372,3.43972 4.3102,-0.8086 4.3961,-0.93887 3.58105,-5.43122 -1.6674,-9.19035 -2.27112,-18.82655 -1.45279,-23.18861 1.56372,-8.3353 7.36789,-10.67509 13.84414,-5.58087 3.11719,2.45198 3.37744,3.26197 2.75009,8.55902 -0.38111,3.21791 -1.58163,7.76481 -2.6678,10.10422 -1.08615,2.33941 -1.64538,3.12848 -1.24269,1.75348 1.61208,-5.50456 2.77579,-13.64693 2.17441,-15.21409 -1.00753,-2.62561 -3.7548,-1.93515 -4.58201,1.15159 -1.08483,4.04803 -0.96311,18.69354 0.14964,18.00465 0.51562,-0.31922 0.62549,4.50345 0.24412,10.71703 -0.60321,9.82854 -1.06816,11.60092 -3.57597,13.63162 -3.58781,2.90524 -3.22064,2.93368 -10.73065,-0.8311 z M 550.5842,542.26847 c 2.9869,-5.77603 3.91828,-20.15151 1.43892,-22.2092 -4.84682,-4.0225 -10.86241,5.80462 -10.86241,17.74493 0,7.46597 0.4613,8.30804 4.55124,8.30804 1.95643,0 3.52411,-1.23675 4.87225,-3.84377 z m -426.7774,10.5554 c -1.6006,-1.1211 -3.6945,-3.91553 -4.65313,-6.20985 -1.95894,-4.6884 -2.2612,-18.63615 -0.56252,-25.95729 1.01476,-4.37354 0.86413,-4.899 -1.59232,-5.55442 -2.65744,-0.70904 -2.65089,-0.73888 0.31921,-1.45396 2.23445,-0.53797 3.51286,-2.20106 4.85863,-6.32059 2.30784,-7.06456 2.11465,-6.89902 5.99037,-5.13312 3.02917,1.38018 3.2059,1.89523 2.42869,7.07805 l -0.8382,5.58955 4.45159,0 c 2.44837,0 4.45159,0.5625 4.45159,1.25 0,0.6875 -2.22832,1.25 -4.95182,1.25 -4.75766,0 -5.01048,0.20831 -6.44792,5.3125 -0.82286,2.92187 -1.54766,9.60952 -1.61068,14.86142 -0.0929,7.73992 0.33654,10.0488 2.26665,12.1875 2.67317,2.96206 8.74341,3.49641 13.75898,1.21116 2.69603,-1.22839 2.93793,-1.79161 1.73495,-4.03942 -0.76885,-1.4366 -1.36702,-5.89052 -1.32928,-9.8976 0.099,-10.50522 4.21337,-18.11644 11.85117,-21.92338 5.189,-2.58638 6.22634,-2.72647 9.25614,-1.25 4.07929,1.9879 5.50069,4.88821 1.9392,3.95686 -3.4919,-0.91316 -9.86829,2.78003 -12.03548,6.9709 -4.22395,8.16822 -3.9172,21.45961 0.55045,23.85062 3.67483,1.96671 8.37211,-0.8842 11.24919,-6.82745 3.52088,-7.27316 3.31823,-11.67091 -0.60655,-13.16311 -3.37933,-1.28482 -4.01033,-3.61467 -1.625,-6 1.97682,-1.97682 2.92817,-1.89326 5.28571,0.46429 2.50229,2.50228 2.52008,9.89611 0.0407,16.92334 -3.77184,10.69052 -13.76482,17.15595 -20.10027,13.0048 -2.92092,-1.91386 -3.57821,-1.92299 -8.10277,-0.11262 -6.32797,2.53195 -12.30151,2.50646 -15.97731,-0.0682 z m 80,0 c -1.6006,-1.1211 -3.6945,-3.91553 -4.65313,-6.20985 -1.95894,-4.6884 -2.2612,-18.63615 -0.56252,-25.95729 1.01476,-4.37354 0.86413,-4.899 -1.59232,-5.55442 -2.65744,-0.70904 -2.65089,-0.73888 0.31921,-1.45396 2.23445,-0.53797 3.51286,-2.20106 4.85863,-6.32059 2.30784,-7.06456 2.11465,-6.89902 5.99037,-5.13312 3.02917,1.38018 3.2059,1.89523 2.42869,7.07805 l -0.8382,5.58955 4.45159,0 c 2.44837,0 4.45159,0.5625 4.45159,1.25 0,0.6875 -2.22832,1.25 -4.95182,1.25 -4.75766,0 -5.01048,0.20831 -6.44792,5.3125 -0.82286,2.92187 -1.54766,9.60952 -1.61068,14.86142 -0.13794,11.49597 1.92519,14.83768 9.14165,14.80694 2.47157,-0.0105 5.12702,-0.4324 5.901,-0.9375 0.85023,-0.55487 1.65821,-6.85547 2.04133,-15.91836 0.42647,-10.08825 1.6122,-18.68381 3.62111,-26.25 l 2.987,-11.25 4.82566,-0.39788 c 4.05297,-0.33418 4.69918,-0.0682 4.0357,1.66076 -2.85894,7.45025 -9.92424,40.8345 -9.31337,44.00652 0.22215,1.1535 2.23101,-2.71278 4.46415,-8.59173 5.05329,-13.30324 8.99191,-19.32658 12.26753,-18.7607 3.78923,0.6546 4.24732,1.73376 3.00707,7.08412 -0.63732,2.7494 -1.17219,8.82135 -1.18859,13.49323 -0.0259,7.37396 0.37485,8.89899 3.03837,11.5625 3.43817,3.43818 4.84433,3.66583 10.48896,1.6981 3.46786,-1.2089 3.8247,-1.76033 3.03329,-4.6875 -3.5081,-12.9754 3.20251,-27.86752 14.19181,-31.49432 5.70586,-1.8831 10.46775,0.91149 10.46775,6.14317 0,4.22366 -5.61224,12.34164 -11.78954,17.05329 -3.53029,2.69268 -4.46046,4.26496 -4.46046,7.53951 0,4.27305 2.6488,8.06593 5.63291,8.06593 0.93739,0 3.28784,-0.59789 5.22322,-1.32864 1.93538,-0.73075 2.95637,-0.7987 2.26887,-0.151 -2.18631,2.05975 -10.15497,4.07918 -12.62172,3.19862 -1.30806,-0.46694 -3.36602,-1.69745 -4.57324,-2.73447 -1.96289,-1.68613 -2.89682,-1.64692 -8.83274,0.37076 -4.94314,1.68022 -7.57401,1.95481 -10.30504,1.07553 -4.99167,-1.60713 -9.29226,-10.14402 -9.29226,-18.44566 0,-8.51784 -1.81592,-6.3531 -6.87167,8.19168 -2.21397,6.36929 -4.617,11.77774 -5.34008,12.01876 -0.72308,0.24103 -2.05458,-0.35382 -2.95888,-1.32189 -1.39594,-1.49436 -2.25609,-1.50446 -5.69664,-0.0669 -5.44938,2.27689 -11.69514,2.13541 -15.23664,-0.34515 z m 81.5139,-29.39443 c 0.90788,-3.47175 -2.43087,-4.37936 -5.63309,-1.5313 -3.10286,2.75968 -7.23436,11.28328 -7.19271,14.8391 0.0228,1.94204 1.38518,1.01163 6.10457,-4.16883 3.3414,-3.66786 6.36595,-7.78039 6.72123,-9.13897 z m 33.04723,27.51977 c -2.24522,-2.15216 -3.10501,-3.21423 -1.91063,-2.36015 1.19436,0.85408 2.99307,1.23763 3.99713,0.85233 2.07469,-0.79613 4.9468,-6.00245 6.20744,-11.2523 0.83179,-3.46391 0.75434,-3.52738 -3.26207,-2.67338 -2.26275,0.48112 -5.23909,1.79654 -6.61409,2.92315 -2.48011,2.03208 -2.48101,2.02596 -0.114,-0.76939 1.31231,-1.54978 4.46416,-3.37736 7.00411,-4.0613 4.53754,-1.22183 4.64251,-1.39126 6.0163,-9.70984 0.769,-4.65647 1.77605,-12.53201 2.23789,-17.5012 l 0.8397,-9.03489 5.36126,0 c 5.95183,0 5.69841,-0.37413 8.04333,11.875 2.01857,10.54438 3.95657,16.875 5.166,16.875 1.67997,0 11.97062,-13.74723 16.1244,-21.54051 4.04259,-7.58467 6.99431,-9.01843 11.61326,-5.64097 2.02157,1.4782 1.99934,2.42094 -0.38609,16.37421 -2.9518,17.26614 -3.28362,30.5504 -0.84637,33.88353 1.37646,1.88243 2.69182,2.15763 7.1875,1.5038 5.3434,-0.77713 5.40706,-0.74732 2.19871,1.02979 -3.85741,2.13663 -9.27124,2.70388 -13.27221,1.39063 -6.22004,-2.04162 -8.56609,-14.0973 -6.1057,-31.37548 l 0.88998,-6.25 -3.91363,4.375 c -10.46775,11.70174 -12.57368,13.75 -14.13709,13.75 -1.0476,0 -3.03898,-4.49909 -5.25236,-11.8666 -1.96075,-6.52662 -3.92882,-11.16725 -4.37347,-10.3125 -0.44465,0.85476 -1.49715,5.95689 -2.3389,11.33808 -1.34368,8.59002 -1.28866,10.05118 0.45097,11.97343 2.61307,2.88742 2.50145,3.76953 -0.3816,3.0156 -1.91839,-0.50167 -2.75953,0.5758 -4.4702,5.72618 -2.0401,6.14215 -6.7285,11.37581 -10.19064,11.37581 -0.92769,0 -3.52371,-1.76086 -5.76893,-3.91303 z m 77.48025,2.56289 c -6.724,-3.91637 -8.41238,-19.42784 -3.22866,-29.66239 2.25974,-4.46154 4.3658,-6.55854 8.81324,-8.77529 5.189,-2.58638 6.22635,-2.72647 9.25614,-1.25 4.07928,1.9879 5.50068,4.88821 1.9392,3.95686 -3.49189,-0.91316 -9.86829,2.78003 -12.03548,6.9709 -4.22395,8.16822 -3.9172,21.45961 0.55045,23.85062 3.67484,1.96671 8.37211,-0.8842 11.24919,-6.82745 3.52087,-7.27316 3.31822,-11.67091 -0.60655,-13.16311 -3.37934,-1.28482 -4.01034,-3.61467 -1.625,-6 1.97682,-1.97682 2.92817,-1.89326 5.28571,0.46429 3.97308,3.97307 1.22665,18.97556 -4.64046,25.34872 -2.53276,2.75122 -9.42483,6.49104 -11.7926,6.39898 -0.53771,-0.0209 -1.96204,-0.61137 -3.16518,-1.31213 z m -104.68747,-6.6218 c 0,-0.25957 0.98437,-1.24395 2.1875,-2.1875 1.98257,-1.55484 2.02679,-1.51063 0.47195,0.47194 -1.63296,2.08219 -2.65945,2.74435 -2.65945,1.71556 z m 295.81874,-35.56399 c -2.23616,-2.47092 -2.74047,-9.71668 -0.88089,-12.6563 0.98528,-1.55754 1.60776,-1.57201 4.35585,-0.10128 3.59813,1.92566 3.83269,3.28775 1.75844,10.21099 -1.63533,5.45824 -2.30396,5.78359 -5.2334,2.54659 z"
         id="path3382"
         inkscape:connector-curvature="0" />
    </g>
  </g>
</svg>
