<?xml version="1.0" encoding="UTF-8" standalone="no"?>
<!-- Created with Inkscape (http://www.inkscape.org/) -->
<svg id="svg3336" xmlns:rdf="http://www.w3.org/1999/02/22-rdf-syntax-ns#" xmlns="http://www.w3.org/2000/svg" viewBox="0 0 146.25 33.75" version="1.1" xmlns:cc="http://creativecommons.org/ns#" xmlns:dc="http://purl.org/dc/elements/1.1/">
 <metadata id="metadata3342">
  <rdf:RDF>
   <cc:Work rdf:about="">
    <dc:format>image/svg+xml</dc:format>
    <dc:type rdf:resource="http://purl.org/dc/dcmitype/StillImage"/>
    <dc:title/>
   </cc:Work>
  </rdf:RDF>
 </metadata>
 <g id="g3346" transform="translate(0 .12077)">
  <path id="path3364" fill="#d1e8f4" d="m135 31.803-3.125-1.8588 3.0942 0.34058c1.9587 0.2156 3.2327-0.35268 3.4717-1.5486 0.27529-1.3776-0.72271-1.8853-3.6856-1.875-3.2792 0.01138-4.418-0.70934-5.9026-3.7359l-1.8395-3.75-1.1776 4.028-1.1776 4.028-9.81-0.12699c-6.552-0.08481-10.273-0.6845-11.203-1.8057-1.1596-1.3972-1.7058-1.3661-3.2576 0.18567-1.4365 1.4365-4.4922 1.7871-13.313 1.5277-10.505-0.31-11.542-0.568-12.675-3.151-1.6025-3.6527-2.6831-3.5573-3.657 0.32304-0.727 2.8966-1.1898 3.0771-6.073 2.369-2.9073-0.42158-6.1945-1.8011-7.3048-3.0656-1.9434-2.2133-2.0707-2.185-3.4107 0.75596-1.7853 3.9183-4.8591 3.9112-6.6481-0.01517l-1.3989-3.0702-2.3448 2.9809c-1.9824 2.5202-3.4493 2.9809-9.4913 2.9809-3.9306 0-7.8589-0.5912-8.7295-1.3138-0.87-0.722-1.582-3.874-1.582-7.003v-5.6898l-2.8931 2.7179c-4.0482 3.8031-5.4077 3.418-6.9537-1.9696l-1.3451-4.6875 0.44239 5.9375c0.24331 3.2656-0.06308 5.9375-0.68087 5.9375s-1.764 1.4062-2.5471 3.125c-0.89554 1.9655-2.4521 3.125-4.1951 3.125-5.8548 0-7.4455-7.022-2.1212-9.3638 3.0838-1.3564 3.4565-2.23 4.6237-10.838 0.74076-5.4631 3.099-8.2622 5.6387-6.6926 0.54613 0.33753 1.3716 3.1387 1.8344 6.2249s1.2722 5.8774 1.7986 6.2028c0.52643 0.32535 2.6033-2.1978 4.6153-5.6069 2.679-4.5386 4.329-6.1122 6.159-5.8753 2.209 0.2858 2.437 1.0517 1.956 6.5735-1.072 12.32-0.8 16.177 1.169 16.562 1.437 0.28139 1.8821-0.93023 1.9052-5.1873 0.04925-9.0624 6.5036-13.709 12.059-8.6815 2.1308 1.9283 2.2859 1.9221 2.2859-0.09166 0-1.3933 0.77672-2.0028 2.1875-1.7165 1.8123 0.36779 2.1186 1.5627 1.7856 6.9667-0.222 3.589-0.097 6.524 0.277 6.524 0.3737 0 1.5881-3.1255 2.6986-6.9456 1.5047-5.1761 2.5419-6.8449 4.0712-6.5504 1.6257 0.31308 2.0575 1.9453 2.0783 7.8565 0.02051 5.8336 0.46333 7.5476 2.0298 7.8567 1.6005 0.3158 2.1669-1.1672 2.8154-7.3722 0.44652-4.2721 1.0113-7.9669 1.255-8.2107 1.0809-1.0809 4.5548 1.3307 4.5908 3.1869 0.03563 1.8408 0.21191 1.827 1.7003-0.13374 0.913-1.203 2.552-2.187 3.641-2.187 1.6064 0 1.9348 1.3588 1.7372 7.1875-0.21564 6.3615 0.04741 7.2292 2.289 7.5503 2.3802 0.34094 2.4913-0.12906 1.8466-7.8125-0.377-4.497-0.262-8.176 0.256-8.176 0.51814 0 1.295-1.4062 1.7264-3.125 0.43138-1.7188 1.217-3.125 1.7458-3.125 1.6994 0 4.0097 3.5969 3.1764 4.9452-0.444 0.7177 0.07 1.3048 1.142 1.3048 2.8373 0 2.3865 2.0939-0.61999 2.8802-2.2516 0.5888-2.5217 1.4943-2.1875 7.3333 0.28108 4.9112 0.87276 6.6615 2.2518 6.6615 1.3698 0 1.7787-1.1712 1.5275-4.375-0.21203-2.704 0.60964-5.9127 2.1513-8.401 2.104-3.3958 3.1938-3.9997 6.9626-3.858 5.4535 0.20502 5.9477 0.93129 6.1098 8.9786 0.10185 5.0555 0.58746 6.4513 2.3649 6.7972 1.8381 0.35777 2.092-0.14108 1.4249-2.799-1.3074-5.2091 0.47003-12.202 2.9721-11.694 1.7161 0.34886 2.0441 1.6237 1.7347 6.7426-0.27352 4.525 0.16472 6.7657 1.5477 7.9135 2.2994 1.9083 2.6384 1.1928 3.718-7.8466 0.87274-7.3078 1.4873-8.4486 4.0262-7.4744 1.4189 0.54449 1.7686 1.8153 1.2748 4.6329l-0.6805 3.8826 2.037-4.0625c1.14-2.278 3-4.063 4.24-4.063 1.8771 0 2.1682 1.0606 1.9607 7.1436-0.20868 6.1182 0.0964 7.2129 2.1254 7.6266 2.1119 0.43058 2.2919-0.09208 1.6585-4.8147-0.88-6.551 0.75-11.205 3.92-11.205 4.253 0 5.5067 2.9215 3.8479 8.9671-0.8161 2.9744-1.6098 7.292-1.7638 9.5948-0.15403 2.3028-1.0664 4.6848-2.0276 5.2934-2.2499 1.4246-2.4144 1.403-6.1225-0.80261zm-130-10.002c0-0.99-0.5625-1.801-1.25-1.801s-1.25 1.158-1.25 2.574c0 1.415 0.5625 2.226 1.25 1.801s1.25-1.583 1.25-2.574zm38.299-1.4229c0.53422-2.1285 0.31256-3.5496-0.60118-3.8542-0.797-0.265-1.448-1.312-1.448-2.327 0-1.0145-0.51922-1.5237-1.1538-1.1315-1.5401 0.95185-2.9873 7.7904-1.99 9.4039 1.4974 2.4228 4.3476 1.2749 5.1925-2.0912zm57.563-3.4665c0.59448-3.6633 0.3856-4.6191-0.91473-4.1857-1.9686 0.65619-3.983 7.0972-3.0244 9.6703 1.0282 2.76 3.0604-0.06958 3.9392-5.4847zm42.47-3.474c-0.34676-0.85938-0.63049-0.15625-0.63049 1.5625s0.28373 2.4219 0.63049 1.5625c0.34676-0.85938 0.34676-2.2656 0-3.125zm-29.377-5.625c-0.62532-1.2031-0.77312-3.1869-0.32844-4.4083 1.2663-3.4783 5.33 0.066467 4.3371 3.7833-0.90025 3.3702-2.4558 3.6127-4.0087 0.625z"/>
  <path id="path3362" fill="#cdd4d8" d="m136.56 32.396c-3.309-1.2539-3.7519-2.667-0.67031-2.1386 1.18 0.20233 2.3301-0.54255 2.5605-1.6584 0.31013-1.5019-0.32467-1.8983-2.4547-1.5329-4.0118 0.68816-6.0957-1.0464-7.169-5.9673l-0.92-4.224-1.6669 5.3633-1.6669 5.3633-9.6964-0.4476c-5.333-0.24618-10.506-1.1197-11.496-1.9412-1.4136-1.1731-2.1236-1.1033-3.3092 0.32532-1.1476 1.3828-4.1663 1.7544-12.59 1.5499-6.097-0.148-11.463-0.65-11.929-1.115-0.465-0.465-1.251-2.703-1.747-4.972l-0.901-4.126-1.6469 5.2964-1.6469 5.2964-5.1195-0.77956c-5.8696-0.89378-8.2104-2.3782-8.3244-5.2788-0.0446-1.135-0.97384-0.23833-2.1018 2.0281-2.1332 4.2862-4.9994 5.3343-5.9825 2.1875-1.8347-5.8728-2.1081-6.3047-2.7694-4.375-1.5925 4.6467-4.2341 6.0431-11.354 6.0019-3.9-0.023-7.792-0.607-8.652-1.3-0.881-0.71-1.565-4.052-1.568-7.668l-0.006-6.409-2.912 3.639c-3.3707 4.2125-5.2594 3.6095-6.5495-2.091l-0.916-4.048-1.011 3.675c-0.63037 2.2926-0.49943 4.2914 0.34802 5.3125 0.952 1.147 0.959 1.638 0.024 1.638-0.734 0-2.074 1.547-2.977 3.438-2.0307 4.25-6.5573 5.181-8.4049 1.728-1.7138-3.202-0.69655-5.738 2.9718-7.409 2.4269-1.106 3.0743-2.633 3.8121-8.9895 0.7993-6.887 1.1576-7.6186 3.563-7.2748 2.1135 0.30217 2.9003 1.6267 3.7544 6.3198 0.59428 3.2656 1.5235 5.9375 2.065 5.9375 0.54146 0 2.7892-2.8125 4.9951-6.25 2.2058-3.4375 4.402-6.25 4.8803-6.25 2.4966 0 3.4414 2.9863 2.4936 7.882-1.2131 6.266-1.4198 15.155-0.37669 16.199 1.7163 1.7163 4.2096-0.6925 3.5279-3.4083-1.1168-4.4498 2.5239-11.699 6.359-12.661 1.898-0.477 3.897-0.2304 4.708 0.5798 1.044 1.0445 0.867 1.4085-0.688 1.4085-2.952 0-6.1614 5.4261-5.6821 9.6067 0.52516 4.5811 3.7178 4.5854 5.3279 0.0073 0.95563-2.7173 0.8235-3.7653-0.58445-4.6354-1.4143-0.87411-1.4856-1.458-0.32016-2.6234s1.9282-1.143 3.427 0.101c1.656 1.375 1.928 1.125 1.928-1.77 0-2.5374 0.54033-3.265 2.1875-2.9459 1.8442 0.35729 2.1291 1.5978 1.8155 7.9042-0.42754 8.598 1.23 7.5553 3.5832-2.2542 1.9112-7.9668 4.1326-6.9176 4.9137 2.3209 0.46907 5.5475 1.1382 7.489 2.682 7.7817 1.6531 0.31342 2.2295-1.096 2.9352-7.1765 0.745-6.413 1.256-7.566 3.355-7.566 2.1111 0 2.3684 0.59957 1.7438 4.0625l-0.73278 4.0625 2.1311-4.1065c3.313-6.384 5.9842-4.8271 5.9988 3.4963 0.01037 5.9025 0.36102 6.9102 2.512 7.2187 2.2635 0.32458 2.5-0.35535 2.5-7.1875 0-4.172-0.55891-7.563-1.25-7.584-0.687-0.0204-0.266-0.6109 0.937-1.3116 1.204-0.7008 2.188-2.1312 2.188-3.1787 0-1.154 0.86205-1.7251 2.1875-1.4492 1.3942 0.29024 2.0826 1.4393 1.8983 3.1685-0.20731 1.9447 0.23524 2.5118 1.5625 2.0025 1.019-0.3907 1.852-0.0878 1.852 0.6733 0 0.7607-1.051 1.3837-2.335 1.3837-1.7976 0-2.4974 1.2075-3.0387 5.2434-0.78274 5.8358 0.69557 9.7566 3.6786 9.7566 1.4305 0 1.7689-0.78731 1.2415-2.8887-1.0336-4.118 1.3911-11.856 4.1833-13.35 1.3035-0.6976 3.6695-1.0273 5.2578-0.7326 1.5883 0.29467 3.3604 0.57757 3.9379 0.62866 0.57755 0.051088 0.92389 2.4835 0.76964 5.4054-0.45406 8.6008-0.15222 9.6875 2.6908 9.6875 2.2035 0 2.5039-0.52455 1.8324-3.1998-1.2714-5.0656 0.45741-12.001 2.8704-11.515 1.6145 0.32493 1.9494 1.6446 1.6156 6.3663-0.38902 5.504 1.1269 9.599 3.5534 9.599 0.52322 0 1.3429-3.6562 1.8214-8.125 0.74979-7.0014 1.2158-8.125 3.3699-8.125 2.1373 0 2.3936 0.58915 1.767 4.0625l-0.73279 4.0625 2.1311-4.1065c3.313-6.384 5.9842-4.8271 5.9988 3.4963 0.01 5.9018 0.3613 6.9106 2.512 7.221 2.2732 0.32806 2.5-0.35229 2.5-7.5 0-7.5515 0.12295-7.8608 3.125-7.8608 2.8437 0 3.1081 0.45003 2.9376 5-0.31036 8.2818-1.9211 16.765-3.4104 17.961-0.79797 0.64082-2.6141 0.6668-4.2147 0.06029zm-130.31-12.679c0-0.58-1.125-0.453-2.5 0.283-2.618 1.401-3.1146 2.719-1.5968 4.237 0.9175 0.917 4.0968-2.59 4.0968-4.52zm95-3.8102c0-2.2352-0.56664-3.4264-1.4844-3.1205-2.0375 0.67918-3.9361 6.8199-2.9193 9.4423 0.76614 1.9759 0.97391 1.9537 2.6179-0.28015 0.986-1.335 1.786-4.054 1.786-6.042zm42.116-1.8206c-0.31693-1.2162-0.59708-0.52379-0.62255 1.5387-0.0255 2.0625 0.23382 3.0576 0.57623 2.2113 0.3424-0.84629 0.36324-2.5338 0.0463-3.75zm-28.79-4.9193c-0.46-0.4584-0.83-2.1871-0.83-3.8417 0-2.0597 0.61205-2.8809 1.941-2.6042 1.0676 0.22229 1.9113 0.82603 1.875 1.3417-0.0363 0.51562-0.066 2.0625-0.066 3.4375 0 2.4903-1.3319 3.2514-2.9167 1.6667z"/>
  <path id="path3360" fill="#a4d9f4" d="m137.17 31.744c1.1273-0.50398 1.3446-3.2896 0.80573-10.33-0.79058-10.328 0.61793-13.606 5.1066-11.883 1.6795 0.6445 1.9964 1.8074 1.4533 5.3341-2.7268 17.707-2.4883 16.995-5.7842 17.29-1.7188 0.15383-2.4304-0.03083-1.5814-0.41036zm6.49-16.432c-0.0778-3.0461-0.21019-3.1528-1.1621-0.9375-1.4671 3.4142-1.4671 4.375 0 4.375 0.6875 0 1.2105-1.5469 1.1621-3.4375zm-142.32 9.854c-1.7138-3.202-0.69655-5.738 2.9718-7.409 2.4269-1.106 3.0743-2.633 3.8121-8.9895 0.7993-6.887 1.1576-7.6186 3.563-7.2748 2.1135 0.30217 2.9003 1.6267 3.7544 6.3198 0.59428 3.2656 1.5235 5.9375 2.065 5.9375 0.54146 0 2.7892-2.8125 4.9951-6.25 2.2058-3.4375 4.402-6.25 4.8803-6.25 2.4966 0 3.4414 2.9863 2.4936 7.882-1.2131 6.266-1.4198 15.155-0.37669 16.199 1.7163 1.7163 4.2096-0.6925 3.5279-3.4083-1.1168-4.4498 2.5239-11.699 6.359-12.661 1.898-0.477 3.897-0.2304 4.708 0.5798 1.044 1.0445 0.867 1.4085-0.688 1.4085-2.952 0-6.1614 5.4261-5.6821 9.6067 0.52516 4.5811 3.7178 4.5854 5.3279 0.0073 0.95563-2.7173 0.8235-3.7653-0.58445-4.6354-1.4143-0.87411-1.4856-1.458-0.32016-2.6234s1.9282-1.143 3.427 0.101c1.656 1.375 1.928 1.125 1.928-1.77 0-2.5374 0.54033-3.265 2.1875-2.9459 1.8442 0.35729 2.1291 1.5978 1.8155 7.9042-0.42754 8.598 1.23 7.5553 3.5832-2.2542 1.9112-7.9668 4.1326-6.9176 4.9137 2.3209 0.46907 5.5475 1.1382 7.489 2.682 7.7817 1.6531 0.31342 2.2295-1.096 2.9352-7.1765 0.745-6.413 1.256-7.566 3.355-7.566 2.1111 0 2.3684 0.59957 1.7438 4.0625l-0.73278 4.0625 2.1311-4.1065c3.313-6.384 5.9842-4.8271 5.9988 3.4963 0.01037 5.9026 0.36099 6.9102 2.512 7.2185 2.276 0.3262 2.4968-0.3459 2.4645-7.5-0.037-8.3313 1.522-13.457 4.099-13.473 0.85938-0.00536 1.5625 1.3553 1.5625 3.0236 0 1.8378 0.86217 3.2587 2.1875 3.605 1.6908 0.44185 1.5663 0.60458-0.54841 0.71666-2.2525 0.11938-2.8852 1.1408-3.5811 5.7814-0.88 5.868 0.602 9.363 3.97 9.363 1.204 0 1.722-1.67 1.722-5.555 0-7.8202 3.9762-12.369 9.7807-11.189 4.154 0.84422 4.1554 0.84704 3.3452 6.7381-0.63022 4.5823-0.35299 6.3511 1.246 7.9501 1.9088 1.9088 1.8758 2.0566-0.45891 2.0566-1.3835 0-2.8858-0.59914-3.3384-1.3314-0.5494-0.88893-1.5086-0.71098-2.8863 0.53543-1.5474 1.4-4.778 1.8057-12.918 1.6222-5.971-0.135-11.24-0.629-11.708-1.098-0.469-0.469-1.258-2.709-1.754-4.978l-0.901-4.126-1.6469 5.2964-1.6469 5.2964-5.1195-0.77956c-5.8696-0.89378-8.2104-2.3782-8.3244-5.2788-0.0446-1.135-0.97384-0.23833-2.1018 2.0281-2.1332 4.2862-4.9994 5.3343-5.9825 2.1875-1.8347-5.8728-2.1081-6.3047-2.7694-4.375-1.5925 4.6467-4.2341 6.0431-11.354 6.0019-3.9-0.023-7.792-0.607-8.652-1.3-0.881-0.71-1.565-4.052-1.568-7.668l-0.006-6.409-2.912 3.639c-3.3707 4.2125-5.2594 3.6095-6.5495-2.091l-0.916-4.048-1.011 3.675c-0.63037 2.2926-0.49943 4.2914 0.34802 5.3125 0.952 1.147 0.959 1.638 0.024 1.638-0.734 0-2.074 1.547-2.977 3.438-2.0307 4.25-6.5573 5.181-8.4049 1.728zm4.9109-5.449c0-0.58-1.125-0.453-2.5 0.283-2.618 1.401-3.1146 2.719-1.5968 4.237 0.9175 0.917 4.0968-2.59 4.0968-4.52zm93.5 2.533c1.7848-1.7848 2.025-9.75 0.29398-9.75-1.7519 0-3.794 4.329-3.794 8.0428 0 3.4884 1.1553 4.0519 3.5 1.7072zm12.75 4c-1.7188-0.55044-2.5625-1.0558-1.875-1.1231 0.6875-0.06728 1.25-3.3577 1.25-7.3121 0-5.4333 0.44092-7.1898 1.8048-7.1898 1.4026 0 1.7306 1.6032 1.4716 7.1941-0.30168 6.5127-0.0582 7.3044 2.5702 8.3583 2.5458 1.0207 2.5955 1.1585 0.40343 1.1188-1.37-0.025-3.9-0.496-5.62-1.046zm9.0026-7.0634c0.29-6.612 0.8-8.562 2.25-8.562 1.0312 0 1.8079 0.5625 1.7258 1.25-0.082 0.6875-0.47759 3.2188-0.87902 5.625l-0.72987 4.375 2.754-5.5325c4.08-8.1845 5.88-7.9994 5.88 0.604 0 5.3473 0.55241 7.5732 2.1875 8.8144 1.9005 1.4427 1.9259 1.6658 0.19374 1.7003-2.8062 0.05595-6.1312-3.9867-6.1312-7.4545 0-3.6135-1.4384-2.3499-3.2111 2.821-0.73487 2.1435-2.0275 4.1278-2.8724 4.4094-1.1385 0.37949-1.4399-1.7051-1.1639-8.0495zm-6.95-10.054c-1.61-1.6099-0.8-6.6327 1.07-6.6327 1.1546 0 1.875 1.1724 1.875 3.0512 0 3.1365-1.5338 4.9983-2.9506 3.5815z"/>
  <path id="path3358" fill="#bac5ca" d="m137.17 31.744c1.1273-0.50398 1.3446-3.2896 0.80573-10.33-0.79058-10.328 0.61793-13.606 5.1066-11.883 1.6795 0.6445 1.9964 1.8074 1.4533 5.3341-2.7268 17.707-2.4883 16.995-5.7842 17.29-1.7188 0.15383-2.4304-0.03083-1.5814-0.41036zm6.49-16.432c-0.0778-3.0461-0.21019-3.1528-1.1621-0.9375-1.4671 3.4142-1.4671 4.375 0 4.375 0.6875 0 1.2105-1.5469 1.1621-3.4375zm-141.32 10.073c-0.9436-1.163-1.0762-1.732-0.2947-1.264 1.9001 1.139 4.6716-2.35 3.7582-4.73-0.3991-1.04-0.2087-1.891 0.4231-1.891 0.6317 0 1.5359-3.423 2.0092-7.6058 1.2788-11.303 5.5286-11.871 7.2716-0.9718 0.424 2.6556 1.34 4.8276 2.034 4.8276 0.69452 0 2.9572-2.6719 5.0282-5.9375 5.6571-8.9203 6.8045-7.9191 6.8045 5.9375 0 9.7222 0.33991 11.875 1.875 11.875 1.3303 0 1.9899-1.6342 2.2707-5.625 0.2517-3.5784 1.3543-6.6483 3.0304-8.4375 2.758-2.9436 6.507-3.6924 7.824-1.562 0.4249 0.6875-0.01723 1.25-0.98249 1.25-3.2173 0-6.0905 4.5348-5.6679 8.9456 0.4814 5.0247 3.3756 5.5854 5.6176 1.0884 1.2721-2.5516 1.2098-3.4571-0.35701-5.1884-2.1923-2.4224 0.03081-4.8295 2.3336-2.5267 1.5908 1.5908-0.73275 10.767-3.0962 12.228-0.80217 0.49577-4.4337 1.0509-8.0702 1.2336-8.855 0.44488-10.887-1.551-10.084-9.9059l0.59312-6.1727-3.7142 3.9742c-2.0428 2.1858-3.9309 3.7576-4.1956 3.4929-0.264-0.265-1.242-2.68-2.172-5.367l-1.691-4.8857-0.88 4.6877c-0.483 2.579-0.538 5.241-0.12 5.917s0.287 1.229-0.29 1.229c-0.578 0-1.6869 1.688-2.4654 3.75-1.5807 4.188-4.2083 4.82-6.792 1.635zm46.721 0.678c-1.568-1.569-2.235-14.974-0.815-16.394 1.9726-1.9726 3.6542 0.74612 3.2277 5.2184-0.25369 2.6602-0.21252 5.8831 0.0915 7.1619 0.4815 2.0254 0.72824 1.9223 1.9139-0.79984 0.87493-2.0087 1.3895-2.393 1.4404-1.076 0.04357 1.127-0.90514 3.2646-2.1083 4.7502-1.7501 2.1611-2.4999 2.3887-3.75 1.1385zm17.441-6.876c0.287-6.612 0.799-8.562 2.247-8.562 1.0312 0 1.8079 0.5625 1.7259 1.25-0.08203 0.6875-0.47759 3.2188-0.87902 5.625l-0.72987 4.375 2.754-5.5325c4.074-8.1845 5.879-7.9994 5.879 0.604 0 5.3473 0.55242 7.5732 2.1875 8.8144 1.9005 1.4427 1.9259 1.6658 0.19374 1.7003-2.806 0.055-6.131-3.987-6.131-7.455 0-3.6135-1.4384-2.3499-3.2111 2.821-0.73486 2.1435-2.0275 4.1278-2.8724 4.4094-1.1385 0.37949-1.4399-1.7051-1.1639-8.0495zm18.376 7.2605c-1.584-0.653-1.937-2.5-1.709-8.948 0.158-4.469 0.7-9.3906 1.204-10.938 1.234-3.7822 4.376-3.6236 4.376 0.2213 0 1.8378 0.86217 3.2587 2.1875 3.605 1.6908 0.44185 1.5663 0.60458-0.54841 0.71666-2.2525 0.11938-2.8852 1.1408-3.5811 5.7814-0.88 5.869 0.602 9.364 3.97 9.364 1.204 0 1.722-1.67 1.722-5.555 0-7.8202 3.9762-12.369 9.7807-11.189 4.154 0.84422 4.1554 0.84704 3.3452 6.7381-0.63022 4.5823-0.35299 6.3511 1.246 7.9501 1.9088 1.9088 1.8758 2.0566-0.45891 2.0566-1.3835 0-2.8858-0.59914-3.3384-1.3314-0.55207-0.89326-1.5019-0.73297-2.8863 0.48707-2.1153 1.8643-11.725 2.518-15.31 1.0415zm14.871-4.198c1.7848-1.7848 2.025-9.75 0.29398-9.75-1.7519 0-3.794 4.329-3.794 8.0428 0 3.4884 1.1553 4.0519 3.5 1.7072zm12.75 4c-1.7188-0.55044-2.5625-1.0558-1.875-1.1231 0.6875-0.06728 1.25-3.3577 1.25-7.3121 0-5.4333 0.44092-7.1898 1.8048-7.1898 1.4026 0 1.7306 1.6032 1.4716 7.1941-0.30168 6.5127-0.0582 7.3044 2.5702 8.3583 2.5458 1.0207 2.5955 1.1585 0.40343 1.1188-1.37-0.025-3.9-0.496-5.62-1.046zm9.0026-7.0634c0.29-6.612 0.8-8.562 2.25-8.562 1.0312 0 1.8079 0.5625 1.7258 1.25-0.082 0.6875-0.47759 3.2188-0.87902 5.625l-0.72987 4.375 2.754-5.5325c4.08-8.1845 5.88-7.9994 5.88 0.604 0 5.3473 0.55241 7.5732 2.1875 8.8144 1.9005 1.4427 1.9259 1.6658 0.19374 1.7003-2.8062 0.05595-6.1312-3.9867-6.1312-7.4545 0-3.6135-1.4384-2.3499-3.2111 2.821-0.73487 2.1435-2.0275 4.1278-2.8724 4.4094-1.1385 0.37949-1.4399-1.7051-1.1639-8.0495zm-62.362 6.0813c-2.5164-1.6001-4.2367-7.8603-3.3941-12.352 1.116-5.9487 3.6095-4.4707 3.7173 2.2035 0.13168 8.1532 0.28737 8.6108 3.3486 9.8412 2.5738 1.0346 2.6004 1.1356 0.3125 1.1906-1.375 0.03305-3.1679-0.36462-3.9843-0.88371zm55.412-16.135c-1.61-1.6099-0.8-6.6327 1.07-6.6327 1.1546 0 1.875 1.1724 1.875 3.0512 0 3.1365-1.5338 4.9983-2.9506 3.5815z"/>
  <path id="path3356" fill="#b0bcc2" d="m137.2 31.534c1.1481-0.78232 1.3733-3.532 0.82769-10.106-0.84675-10.203 0.50837-13.548 4.6013-11.357 1.4953 0.80025 2.3228 2.5191 2.2441 4.6612l-0.12 3.393-0.89-3.125-0.89029-3.125-0.95446 3.7185c-0.52496 2.0452-0.4652 3.8816 0.1328 4.081 0.59799 0.19933 0.78108 3.026 0.40685 6.2815-0.59365 5.1642-1.0789 5.9658-3.8054 6.2859-2.0536 0.24107-2.5843-0.0016-1.5478-0.70789zm-134.86-6.149c-0.9436-1.163-1.0762-1.732-0.2947-1.264 1.9001 1.139 4.6716-2.35 3.7582-4.73-0.3991-1.04-0.2087-1.891 0.4231-1.891 0.6317 0 1.5359-3.423 2.0092-7.6058 1.2788-11.303 5.5286-11.871 7.2716-0.9718 0.424 2.6556 1.34 4.8276 2.034 4.8276 0.69452 0 2.9572-2.6719 5.0282-5.9375 5.6571-8.9203 6.8045-7.9191 6.8045 5.9375 0 9.7222 0.33991 11.875 1.875 11.875 1.3303 0 1.9899-1.6342 2.2707-5.625 0.2517-3.5784 1.3543-6.6483 3.0304-8.4375 2.758-2.9436 6.507-3.6924 7.824-1.562 0.4249 0.6875-0.01723 1.25-0.98249 1.25-3.2173 0-6.0905 4.5348-5.6679 8.9456 0.4814 5.0247 3.3756 5.5854 5.6176 1.0884 1.2721-2.5516 1.2098-3.4571-0.35701-5.1884-2.1923-2.4224 0.03081-4.8295 2.3336-2.5267 1.5908 1.5908-0.73275 10.767-3.0962 12.228-0.80217 0.49577-4.4337 1.0509-8.0702 1.2336-8.855 0.44488-10.887-1.551-10.084-9.9059l0.59312-6.1727-3.7142 3.9742c-2.0428 2.1858-3.9309 3.7576-4.1956 3.4929-0.264-0.265-1.242-2.68-2.172-5.367l-1.691-4.8857-0.88 4.6877c-0.483 2.579-0.538 5.241-0.12 5.917s0.287 1.229-0.29 1.229c-0.578 0-1.6869 1.688-2.4654 3.75-1.5807 4.188-4.2083 4.82-6.792 1.635zm46.721 0.678c-1.568-1.569-2.235-14.974-0.815-16.394 1.9726-1.9726 3.6542 0.74612 3.2277 5.2184-0.25369 2.6602-0.21252 5.8831 0.0915 7.1619 0.4815 2.0254 0.72824 1.9223 1.9139-0.79984 0.87493-2.0087 1.3895-2.393 1.4404-1.076 0.04357 1.127-0.90514 3.2646-2.1083 4.7502-1.7501 2.1611-2.4999 2.3887-3.75 1.1385zm17.441-6.876c0.287-6.612 0.799-8.562 2.247-8.562 1.0312 0 1.8079 0.5625 1.7259 1.25-0.08203 0.6875-0.47759 3.2188-0.87902 5.625l-0.72987 4.375 2.754-5.5325c4.074-8.1845 5.879-7.9994 5.879 0.604 0 5.3473 0.55242 7.5732 2.1875 8.8144 1.9005 1.4427 1.9259 1.6658 0.19374 1.7003-2.806 0.055-6.131-3.987-6.131-7.455 0-3.6135-1.4384-2.3499-3.2111 2.821-0.73486 2.1435-2.0275 4.1278-2.8724 4.4094-1.1385 0.37949-1.4399-1.7051-1.1639-8.0495zm18.401 7.288c-1.524-0.656-1.964-2.772-1.937-9.287 0.02-4.641 0.42-8.438 0.889-8.438s1.161-1.1816 1.539-2.6258c0.805-3.0773 3.355-2.0451 3.355 1.3579 0 1.284 0.98438 2.5918 2.1875 2.9062 1.679 0.43876 1.5468 0.60536-0.56836 0.71666-4.9763 0.26183-5.5893 14.251-0.68079 15.534 1.811 0.473 1.757 0.581-0.313 0.628-1.375 0.032-3.387-0.325-4.472-0.792zm9.096-0.475c-0.825-0.825-1.5-3.6631-1.5-6.3068 0-6.5402 4.185-10.813 9.7854-9.9913l4.0121 0.58885-0.80871 6.0963c-0.54568 4.1136-0.30036 6.7089 0.75429 7.9796 1.2754 1.5368 1.2145 1.8833-0.33133 1.8833-1.0419 0-2.223-0.85651-2.6247-1.9034-0.61886-1.6127-1.1164-1.5173-3.2587 0.625-2.925 2.923-3.959 3.099-6.03 1.028zm6.6988-5.224c0.41053-1.6357 0.56187-4.5547 0.33631-6.4868-0.39121-3.3511-0.51084-3.4115-2.5976-1.3118-2.754 2.77-3.004 10.773-0.338 10.773 1.0182 0 2.1871-1.3383 2.5976-2.974zm11.8 5.474c-1.7188-0.55044-2.5584-1.0569-1.866-1.1254 0.71484-0.07075 1.0651-2.5632 0.81028-5.7666-0.52765-6.6344 0.33545-9.5552 2.5709-8.7001 1.1193 0.42811 1.4794 2.7064 1.1818 7.4765-0.38824 6.2227-0.15576 6.9698 2.5 8.034 2.5483 1.0211 2.6038 1.1673 0.42805 1.1279-1.37-0.025-3.9-0.496-5.62-1.046zm8.7691-5.9375c0.0105-3.9531 0.51014-7.9627 1.1102-8.9101 1.2672-2.0007 3.9855-0.80444 3.2954 1.4502-0.2563 0.83736-0.79881 3.21-1.2056 5.2725l-0.73957 3.75 1.9373-3.125 1.9373-3.125-0.84407 3.125c-2.9696 10.994-5.5181 11.72-5.4911 1.5625zm10.758 5.5786c-2.8114-2.0558-4.7725-10.598-3.1352-13.657 2.0364-3.8051 3.6077-1.2527 3.6077 5.8605 0 4.2267 0.57636 6.9029 1.5625 7.2551 0.85937 0.30692 1.2402 0.91048 0.84625 1.3413-0.39394 0.43077-1.6905 0.07084-2.8812-0.79984zm-72.889-0.623c-2.5164-1.6001-4.2367-7.8603-3.3941-12.352 1.116-5.9487 3.6095-4.4707 3.7173 2.2035 0.13168 8.1532 0.28737 8.6108 3.3486 9.8412 2.5738 1.0346 2.6004 1.1356 0.3125 1.1906-1.375 0.03305-3.1679-0.36462-3.9843-0.88371zm54.609-19.643c0-2.1111 0.57292-3.1424 1.5625-2.8125 0.85938 0.28646 1.5625 1.5521 1.5625 2.8125s-0.70312 2.526-1.5625 2.8125c-0.99 0.3299-1.56-0.7014-1.56-2.8125z"/>
  <path id="path3354" fill="#6ec4ef" d="m137.21 31.454c1.1687-0.74176 1.3953-3.5469 0.85735-10.614-0.60985-8.0124-0.40679-9.7306 1.224-10.356 1.0753-0.41264 2.9395-0.371 4.1426 0.09253 2.0536 0.79119 2.0458 0.92236-0.12736 2.1421-1.9868 1.1152-2.1957 2.253-1.4742 8.028 1.0557 8.4494 0.0731 11.76-3.4827 11.735-1.866-0.01309-2.2262-0.33777-1.1398-1.0273zm-134.87-6.069c-0.9436-1.163-1.0762-1.732-0.2947-1.264 1.9001 1.139 4.6716-2.35 3.7582-4.73-0.3991-1.04-0.2087-1.891 0.4231-1.891 0.6317 0 1.5359-3.423 2.0092-7.6058 1.2788-11.303 5.5286-11.871 7.2716-0.9718 0.424 2.6556 1.34 4.8276 2.034 4.8276 0.69452 0 2.9572-2.6719 5.0282-5.9375 5.6571-8.9203 6.8045-7.9191 6.8045 5.9375 0 9.7222 0.33991 11.875 1.875 11.875 1.3303 0 1.9899-1.6342 2.2707-5.625 0.2517-3.5784 1.3543-6.6483 3.0304-8.4375 2.758-2.9436 6.507-3.6924 7.824-1.562 0.4249 0.6875-0.01723 1.25-0.98249 1.25-3.2173 0-6.0905 4.5348-5.6679 8.9456 0.4814 5.0247 3.3756 5.5854 5.6176 1.0884 1.2721-2.5516 1.2098-3.4571-0.35701-5.1884-2.1923-2.4224 0.03081-4.8295 2.3336-2.5267 1.5908 1.5908-0.73275 10.767-3.0962 12.228-0.80217 0.49577-4.4337 1.0509-8.0702 1.2336-8.855 0.44488-10.887-1.551-10.084-9.9059l0.59312-6.1727-3.7142 3.9742c-2.0428 2.1858-3.9309 3.7576-4.1956 3.4929-0.264-0.265-1.242-2.68-2.172-5.367l-1.691-4.8857-0.88 4.6877c-0.483 2.579-0.538 5.241-0.12 5.917s0.287 1.229-0.29 1.229c-0.578 0-1.6869 1.688-2.4654 3.75-1.5807 4.188-4.2083 4.82-6.792 1.635zm46.721 0.678c-1.568-1.569-2.235-14.974-0.815-16.394 1.9726-1.9726 3.6542 0.74612 3.2277 5.2184-0.25369 2.6602-0.21252 5.8831 0.0915 7.1619 0.4815 2.0254 0.72824 1.9223 1.9139-0.79984 0.87493-2.0087 1.3895-2.393 1.4404-1.076 0.04357 1.127-0.90514 3.2646-2.1083 4.7502-1.7501 2.1611-2.4999 2.3887-3.75 1.1385zm17.441-6.876c0.287-6.612 0.799-8.562 2.247-8.562 1.0312 0 1.8079 0.5625 1.7259 1.25-0.08203 0.6875-0.47759 3.2188-0.87902 5.625l-0.72987 4.375 2.754-5.5325c4.074-8.1845 5.879-7.9994 5.879 0.604 0 5.3473 0.55242 7.5732 2.1875 8.8144 1.9005 1.4427 1.9259 1.6658 0.19374 1.7003-2.806 0.055-6.131-3.987-6.131-7.455 0-3.6135-1.4384-2.3499-3.2111 2.821-0.73486 2.1435-2.0275 4.1278-2.8724 4.4094-1.1385 0.37949-1.4399-1.7051-1.1639-8.0495zm19.807 7.1267c-0.999-0.632-2.177-0.926-2.618-0.653-1.301 0.804-0.311-14.72 1.183-18.549 1.754-4.4953 4.382-3.103 3.37 1.786-0.41 1.981-1.089 5.282-1.51 7.336-1.0327 5.0437 0.29133 9.7089 2.9529 10.405 1.5503 0.40518 1.641 0.60812 0.31165 0.69735-1.0312 0.06922-2.6919-0.39091-3.6903-1.0225zm7.69-0.314c-2.124-2.124-1.861-9.929 0.446-13.222 1.445-2.062 3.2-2.778 6.814-2.778h4.8702l-0.73759 6.2278c-0.49185 4.1529-0.21301 6.8599 0.83695 8.125 0.87013 1.0484 1.0153 1.8972 0.32454 1.8972-0.6875 0-1.9644-0.86075-2.8375-1.9128-1.4086-1.6972-1.8539-1.6268-3.9517 0.625-2.728 2.934-3.692 3.108-5.762 1.038zm7.187-6.4342c1.38-4.183 0.74-8.316-1.28-8.316-1.741 0-3.66 4.544-3.66 8.668 0 5.231 3.169 5.005 4.937-0.35204zm12.027 5.9699c-2.1208-2.1208-2.6709-11.235-0.8514-14.107 1.6667-2.6304 2.6252 0.10251 2.3393 6.67-0.19874 4.5664 0.28476 6.3 2.1343 7.6524 1.9977 1.4608 2.0581 1.7485 0.36665 1.7485-1.1136 0-2.9086-0.88393-3.9889-1.9643zm8.8878 1.1497c-1.2305-1.2305-1.0125-13.247 0.27727-15.283 2.0763-3.278 3.7328-0.38317 2.4465 4.2754-0.66943 2.4245-0.91696 5.3732-0.55006 6.5527 0.75424 2.4248-0.87168 5.7571-2.1737 4.455zm-62.969-1.418c-2.5164-1.6001-4.2367-7.8603-3.3941-12.352 1.116-5.9487 3.6095-4.4707 3.7173 2.2035 0.13168 8.1532 0.28737 8.6108 3.3486 9.8412 2.5738 1.0346 2.6004 1.1356 0.3125 1.1906-1.375 0.03305-3.1679-0.36462-3.9843-0.88371zm70.903-1.4357c-0.71168-1.3298-1.3026-3.7204-1.3131-5.3125-0.01-2.328-0.26-2.528-1.23-1.02-1.923 2.9756-1.4431 0.24922 0.67824-3.8529 2.5944-5.0171 4.8008-3.3945 3.8099 2.802-0.42962 2.6868-0.18918 5.9911 0.53433 7.343 0.85362 1.595 0.87661 2.458 0.0655 2.458-0.6875 0-1.8323-1.088-2.544-2.4178zm-15.79-16.832c-0.45758-1.1924-0.21321-2.7868 0.54304-3.543 1-1 1.6019-0.78372 2.207 0.79304 0.45758 1.1924 0.21321 2.7868-0.54304 3.543-1 1-1.6019 0.78372-2.207-0.79304z"/>
  <path id="path3352" fill="#4eb7eb" d="m137.21 31.454c1.1687-0.74176 1.3953-3.5469 0.85735-10.614-0.60985-8.0124-0.40679-9.7306 1.224-10.356 1.0753-0.41264 2.9395-0.371 4.1426 0.09253 2.0536 0.79119 2.0458 0.92236-0.12736 2.1421-1.9868 1.1152-2.1957 2.253-1.4742 8.028 1.0557 8.4494 0.0731 11.76-3.4827 11.735-1.866-0.01309-2.2262-0.33777-1.1398-1.0273zm-134.08-5.204c-0.4249-0.688-0.1985-1.25 0.503-1.25 1.4943 0 3.8505-8.003 4.9635-16.858 0.5553-4.4179 1.3906-6.3505 2.8675-6.6346 1.6187-0.31137 2.4091 1.1653 3.5402 6.6137 1.2847 6.1882 1.6902 6.8225 3.442 5.3842 1.0922-0.89668 3.4781-3.9748 5.302-6.8402 2.2374-3.5149 3.8341-4.8898 4.9082-4.226 1.2643 0.7814 1.3021 2.8517 0.18358 10.061-1.201 7.738-1.122 9.514 0.532 12.038 1.706 2.604 1.714 2.962 0.066 2.962-3.518 0-5.998-5.672-5.039-11.521l0.878-5.354-3.784 3.574c-4.478 4.228-5.89 3.707-7.112-2.623-0.881-4.5634-0.943-4.6095-2.103-1.576-0.658 1.719-0.973 4.672-0.701 6.562 0.272 1.891 0.03 3.438-0.538 3.438-0.569 0-1.034 0.804-1.034 1.786 0 1.962-3.2933 5.714-5.0155 5.714-0.5978 0-1.4346-0.562-1.8595-1.25zm32.487-0.02039c-0.43183-0.69872-1.2039-1.0116-1.7157-0.69531-0.51178 0.3163-0.56203-2.2972-0.11167-5.8077 0.57299-4.4665 1.6705-7.0724 3.6554-8.6797 3.211-2.6003 4.57-2.8505 5.685-1.047 0.4249 0.6875-0.13311 1.25-1.24 1.25-2.9252 0-6.0665 8.108-4.3697 11.279 1.7128 3.2003 3.1377 3.1214 5.5388-0.30668 1.07-1.528 1.946-2.091 1.946-1.25 0 2.108-4.605 6.528-6.801 6.528-0.99068 0-2.1545-0.57168-2.5864-1.2704zm13.358-0.26c-1.742-1.742-1.936-13.297-0.268-15.935 0.994-1.5716 1.286-1.5204 2.004 0.351 0.46243 1.2051 0.50798 3.855 0.10122 5.8888-0.83588 4.1794 0.14173 7.8085 1.8235 6.7692 1.7627-1.0894 1.3046 1.4958-0.53572 3.0232-1.2084 1.0029-2.0513 0.97671-3.125-0.09695zm18.134 0.718c-1.232-1.232-1.0157-13.247 0.27522-15.285 1.9972-3.1533 3.7692-0.4071 2.5285 3.9187-0.63685 2.2206-1.1493 4.8849-1.1388 5.9206 0.017 1.6725 0.16608 1.6734 1.3319 0.0083 1.0037-1.4336 1.1133-1.1394 0.46537 1.25-1.0255 3.7819-2.3119 5.3378-3.4622 4.1875zm19.206-0.375c-0.999-0.631-2.177-0.925-2.618-0.652-1.301 0.804-0.311-14.72 1.183-18.549 1.754-4.4953 4.382-3.103 3.37 1.786-0.41 1.981-1.089 5.282-1.51 7.336-1.0327 5.0437 0.29133 9.7089 2.9529 10.405 1.5503 0.40518 1.641 0.60812 0.31165 0.69735-1.0312 0.06922-2.6919-0.39091-3.6903-1.0225zm7.69-0.313c-2.124-2.124-1.861-9.929 0.446-13.222 1.445-2.062 3.2-2.778 6.814-2.778h4.8702l-0.73759 6.2278c-0.49185 4.1529-0.21301 6.8599 0.83695 8.125 0.87013 1.0484 1.0153 1.8972 0.32454 1.8972-0.6875 0-1.9644-0.86075-2.8375-1.9128-1.4086-1.6972-1.8539-1.6268-3.9517 0.625-2.728 2.934-3.692 3.108-5.762 1.038zm7.187-6.4342c1.38-4.183 0.74-8.316-1.28-8.316-1.741 0-3.66 4.544-3.66 8.668 0 5.231 3.169 5.005 4.937-0.35204zm12.027 5.9699c-2.1208-2.1208-2.6709-11.235-0.8514-14.107 1.6667-2.6304 2.6252 0.10251 2.3393 6.67-0.19874 4.5664 0.28476 6.3 2.1343 7.6524 1.9977 1.4608 2.0581 1.7485 0.36665 1.7485-1.1136 0-2.9086-0.88393-3.9889-1.9643zm8.8878 1.1497c-1.2305-1.2305-1.0125-13.247 0.27727-15.283 2.0763-3.278 3.7328-0.38317 2.4465 4.2754-0.66943 2.4245-0.91696 5.3732-0.55006 6.5527 0.75424 2.4248-0.87168 5.7571-2.1737 4.455zm-63.896-2.4c-1.0804-1.0804-1.9729-2.9085-1.9834-4.0625-0.017-1.828-0.194-1.857-1.368-0.224-1.09 1.516-1.19 1.396-0.518-0.625 0.456-1.375 1.142-4.047 1.524-5.937 0.381-1.891 1.486-3.438 2.455-3.438 1.3828 0 1.5897 1.2971 0.96203 6.029-0.62767 4.7316-0.34874 6.48 1.2962 8.125 1.1528 1.1528 1.5335 2.096 0.84601 2.096-0.6875 0-2.1339-0.88393-3.2143-1.9643zm16.83-0.454c-0.712-1.33-1.303-3.72-1.313-5.312-0.016-2.328-0.257-2.528-1.231-1.02-1.923 2.9756-1.4431 0.24922 0.67824-3.8529 2.5944-5.0171 4.8008-3.3945 3.8099 2.802-0.42963 2.6868-0.18918 5.9911 0.53432 7.343 0.85362 1.595 0.87661 2.458 0.06547 2.458-0.6875 0-1.8323-1.088-2.544-2.4178zm55 0c-0.71168-1.3298-1.3026-3.7204-1.3131-5.3125-0.01-2.328-0.26-2.528-1.23-1.02-1.923 2.9756-1.4431 0.24922 0.67824-3.8529 2.5944-5.0171 4.8008-3.3945 3.8099 2.802-0.42962 2.6868-0.18918 5.9911 0.53433 7.343 0.85362 1.595 0.87661 2.458 0.0655 2.458-0.6875 0-1.8323-1.088-2.544-2.4178zm-85.978-7.232c-0.859-0.307-1.562-1.476-1.562-2.597 0-1.8556 0.1898-1.8489 2.1131 0.0744 2.2598 2.2598 2.0034 3.4345-0.5506 2.5223zm70.188-9.6c-0.45758-1.1924-0.21321-2.7868 0.54304-3.543 1-1 1.6019-0.78372 2.207 0.79304 0.45758 1.1924 0.21321 2.7868-0.54304 3.543-1 1-1.6019 0.78372-2.207-0.79304z"/>
  <path id="path3350" fill="#96a5ad" d="m137.21 31.454c1.1687-0.74176 1.3953-3.5469 0.85735-10.614-0.60985-8.0124-0.40679-9.7306 1.224-10.356 1.0753-0.41264 2.9395-0.371 4.1426 0.09253 2.0536 0.79119 2.0458 0.92236-0.12736 2.1421-1.9868 1.1152-2.1957 2.253-1.4742 8.028 1.0557 8.4494 0.0731 11.76-3.4827 11.735-1.866-0.01309-2.2262-0.33777-1.1398-1.0273zm-133.29-5.06c-1.3302-0.852-1.357-1.207-0.1223-1.619 1.7124-0.57 4.8067-10.831 4.896-16.235 0.1274-7.6977 4.1662-10.172 5.5242-3.3838 1.044 5.2201 0.84283 7.3045-0.40716 4.2188-0.85911-2.1209-1.1493-1.7993-1.9137 2.1204-0.49554 2.5412-0.6606 5.3416-0.3668 6.2229 0.2938 0.88139 0.06929 2.1772-0.49891 2.8796-0.5682 0.70238-2.0173 2.5395-3.2201 4.0824-1.4908 1.9123-2.7295 2.4578-3.891 1.7138zm22.88-0.669c-1.988-1.4547-2.3762-3.0921-2.1483-9.0625l0.278-7.287-3.7 4.375c-3.0803 3.6424-3.9087 4.061-4.9465 2.5-0.68562-1.0312-1.2466-2.4375-1.2466-3.125s0.55802-0.40625 1.2401 0.625c1.0515 1.5899 1.6249 1.3999 3.7713-1.25 1.3922-1.7188 3.5324-4.9975 4.756-7.286 1.8823-3.5205 2.4585-3.8794 3.7432-2.3314 1.1649 1.4036 1.1999 3.8829 0.15029 10.648-0.99499 6.4129-0.99218 9.5207 0.01037 11.394 1.6303 3.0462 1.3322 3.1713-1.908 0.80029zm8.7252-0.3765c-1.4684-1.4684-1.8631-3.4075-1.3985-6.8709 0.81905-6.1065 2.802-8.4983 6.9625-8.3979 3.2247 0.07779 3.2329 0.09992 0.45376 1.2164-5.3709 2.1577-6.8073 12.964-1.856 13.962 2.0546 0.41429 2.0567 0.4921 0.03533 1.2884-1.2917 0.50884-2.9687 0.03005-4.1971-1.1983zm31.557 1.3186c-1.0316-1.0316-1.0637-10.055-0.04915-13.84 1.3795-5.1468 2.7535-1.6479 2.3604 6.0107-0.39813 7.7568-0.85071 9.29-2.3112 7.8295zm18.905-0.489c-3.011-1.755-3.825-8.224-1.956-15.553 2.671-10.478 5.0976-5.855 2.7801 5.2965-1.1053 5.3186 0.15257 10.005 2.8765 10.717 1.5335 0.40079 1.6266 0.60345 0.31165 0.67848-1.0312 0.05885-2.8368-0.4537-4.0122-1.139zm8.012-0.178c-2.124-2.124-1.861-9.929 0.446-13.222 1.445-2.062 3.2-2.778 6.814-2.778h4.8702l-0.73759 6.2278c-0.49185 4.1529-0.21301 6.8599 0.83695 8.125 0.87013 1.0484 1.0153 1.8972 0.32454 1.8972-0.6875 0-1.9644-0.86075-2.8375-1.9128-1.4086-1.6972-1.8539-1.6268-3.9517 0.625-2.728 2.934-3.692 3.108-5.762 1.038zm7.187-6.4342c1.38-4.183 0.74-8.316-1.28-8.316-1.741 0-3.66 4.544-3.66 8.668 0 5.231 3.169 5.005 4.937-0.35204zm12.027 5.9699c-2.1208-2.1208-2.6709-11.235-0.8514-14.107 1.6667-2.6304 2.6252 0.10251 2.3393 6.67-0.19874 4.5664 0.28476 6.3 2.1343 7.6524 1.9977 1.4608 2.0581 1.7485 0.36665 1.7485-1.1136 0-2.9086-0.88393-3.9889-1.9643zm8.8878 1.1497c-1.2305-1.2305-1.0125-13.247 0.27727-15.283 2.0763-3.278 3.7328-0.38317 2.4465 4.2754-0.66943 2.4245-0.91696 5.3732-0.55006 6.5527 0.75424 2.4248-0.87168 5.7571-2.1737 4.455zm-74.048-3.368c-1.1609-4.6253-0.10488-12.445 1.7636-13.059 1.3555-0.44583 1.5257 0.71164 0.83874 5.7061-0.55481 4.034-0.38135 6.5622 0.48705 7.0989 1.9622 1.2127 1.651 3.186-0.50243 3.186-1.0182 0-2.1823-1.3192-2.587-2.9317zm27.771 1.994c-0.31074-0.51562-1.1642-3.126-1.8965-5.8008-1.0348-3.7795-0.95445-5.4017 0.36069-7.2793 2.2599-3.2264 3.5437-0.94318 2.5245 4.4897-0.44993 2.3983-0.1837 5.4163 0.60835 6.8963 1.2923 2.4148-0.20528 4.0035-1.597 1.6941zm54.211-1.4803c-0.71168-1.3298-1.3026-3.7204-1.3131-5.3125-0.01-2.328-0.26-2.528-1.23-1.02-1.923 2.9756-1.4431 0.24922 0.67824-3.8529 2.5944-5.0171 4.8008-3.3945 3.8099 2.802-0.42962 2.6868-0.18918 5.9911 0.53433 7.343 0.85362 1.595 0.87661 2.458 0.0655 2.458-0.6875 0-1.8323-1.088-2.544-2.4178zm-72.368-1.02c-2.335-4.379-2.191-12.812 0.219-12.812 1.1806 0 1.6188 2.1015 1.5625 7.4928-0.04304 4.121-0.19909 7.496-0.34678 7.5s-0.79328-0.97716-1.4347-2.1803zm-15.172-7.812c0-0.6875 0.5625-1.25 1.25-1.25s1.25 0.5625 1.25 1.25-0.5625 1.25-1.25 1.25-1.25-0.5625-1.25-1.25zm71.75-8c-0.45758-1.1924-0.21321-2.7868 0.54304-3.543 1-1 1.6019-0.78372 2.207 0.79304 0.45758 1.1924 0.21321 2.7868-0.54304 3.543-1 1-1.6019 0.78372-2.207-0.79304z"/>
  <path id="path3348" fill="#35ade9" d="m3.9211 26.394c-1.3302-0.852-1.357-1.207-0.1223-1.619 1.7124-0.57 4.8067-10.831 4.896-16.235 0.1274-7.6977 4.1662-10.172 5.5242-3.3838 1.044 5.2201 0.84283 7.3045-0.40716 4.2188-0.85911-2.1209-1.1493-1.7993-1.9137 2.1204-0.49554 2.5412-0.6606 5.3416-0.3668 6.2229 0.2938 0.88139 0.06929 2.1772-0.49891 2.8796-0.5682 0.70238-2.0173 2.5395-3.2201 4.0824-1.4908 1.9123-2.7295 2.4578-3.891 1.7138zm22.88-0.669c-1.988-1.4547-2.3762-3.0921-2.1483-9.0625l0.278-7.287-3.7 4.375c-3.0803 3.6424-3.9087 4.061-4.9465 2.5-0.68562-1.0312-1.2466-2.4375-1.2466-3.125s0.55802-0.40625 1.2401 0.625c1.0515 1.5899 1.6249 1.3999 3.7713-1.25 1.3922-1.7188 3.5324-4.9975 4.756-7.286 1.8823-3.5205 2.4585-3.8794 3.7432-2.3314 1.1649 1.4036 1.1999 3.8829 0.15029 10.648-0.99499 6.4129-0.99218 9.5207 0.01037 11.394 1.6303 3.0462 1.3322 3.1713-1.908 0.80029zm8.7252-0.3765c-1.4684-1.4684-1.8631-3.4075-1.3985-6.8709 0.81905-6.1065 2.802-8.4983 6.9625-8.3979 3.2247 0.07779 3.2329 0.09992 0.45376 1.2164-5.3709 2.1577-6.8073 12.964-1.856 13.962 2.0546 0.41429 2.0567 0.4921 0.03533 1.2884-1.2917 0.50884-2.9687 0.03005-4.1971-1.1983zm31.557 1.3186c-1.0316-1.0316-1.0637-10.055-0.04915-13.84 1.3795-5.1468 2.7535-1.6479 2.3604 6.0107-0.39813 7.7568-0.85071 9.29-2.3112 7.8295zm-19.022-3.3483c-1.1609-4.6253-0.10488-12.445 1.7636-13.059 1.3555-0.44583 1.5257 0.71164 0.83874 5.7061-0.55481 4.034-0.38135 6.5622 0.48705 7.0989 1.9622 1.2127 1.651 3.186-0.50243 3.186-1.0182 0-2.1823-1.3192-2.587-2.9317zm27.772 1.993c-0.31074-0.51562-1.1642-3.126-1.8965-5.8008-1.0348-3.7795-0.95445-5.4017 0.36069-7.2793 2.2599-3.2264 3.5437-0.94318 2.5245 4.4897-0.44993 2.3983-0.1837 5.4163 0.60835 6.8963 1.2923 2.4148-0.20528 4.0035-1.597 1.6941zm-18.161-2.5c-2.335-4.379-2.191-12.812 0.219-12.812 1.1806 0 1.6188 2.1015 1.5625 7.4928-0.04304 4.121-0.19909 7.496-0.34678 7.5s-0.79328-0.97716-1.4347-2.1803zm-15.172-7.812c0-0.6875 0.5625-1.25 1.25-1.25s1.25 0.5625 1.25 1.25-0.5625 1.25-1.25 1.25-1.25-0.5625-1.25-1.25z"/>
 </g>
</svg>
